<svg width="685" height="114" viewBox="0 0 685 114" fill="none" xmlns="http://www.w3.org/2000/svg">
<g filter="url(#filter0_ddii_4_4)">
<mask id="path-1-outside-1_4_4" maskUnits="userSpaceOnUse" x="9.15601" y="1.31598" width="666" height="94" fill="black">
<rect fill="white" x="9.15601" y="1.31598" width="666" height="94"/>
<path d="M46.404 4.22797C52.036 4.22797 57.3267 5.33731 62.276 7.55598C67.3107 9.68931 71.6627 12.6333 75.332 16.388C79.0867 20.0573 82.0307 24.4093 84.164 29.444C86.3827 34.3933 87.492 39.684 87.492 45.316V52.228C87.492 57.86 86.3827 63.1933 84.164 68.228C82.0307 73.1773 79.0867 77.5293 75.332 81.284C71.6627 84.9533 67.3107 87.8973 62.276 90.116C57.3267 92.2493 52.036 93.316 46.404 93.316H12.1V4.22797H46.404ZM67.012 45.316C67.012 42.5 66.4573 39.8546 65.348 37.38C64.324 34.82 62.8733 32.644 60.996 30.852C59.1187 28.9746 56.9 27.524 54.34 26.5C51.8653 25.3906 49.22 24.836 46.404 24.836H32.708V72.836H46.404C49.22 72.836 51.8653 72.324 54.34 71.3C56.9 70.1906 59.1187 68.6973 60.996 66.82C62.8733 64.9426 64.324 62.7666 65.348 60.292C66.4573 57.732 67.012 55.044 67.012 52.228V45.316ZM98.994 45.316C98.994 39.684 100.061 34.3933 102.194 29.444C104.413 24.4093 107.357 20.0573 111.026 16.388C114.781 12.6333 119.133 9.68931 124.082 7.55598C129.117 5.33731 134.45 4.22797 140.082 4.22797H174.386V24.836H140.082C135.73 24.836 131.762 26.0733 128.178 28.548C124.679 31.0226 122.205 34.3506 120.754 38.532H174.386V59.012H120.754C122.205 63.1933 124.679 66.564 128.178 69.124C131.762 71.5986 135.73 72.836 140.082 72.836H174.386V93.316H140.082C134.45 93.316 129.117 92.2493 124.082 90.116C119.133 87.8973 114.781 84.9533 111.026 81.284C107.357 77.5293 104.413 73.1773 102.194 68.228C100.061 63.1933 98.994 57.86 98.994 52.228V45.316ZM248.343 93.316V79.62H207.127V93.316H186.647V45.316C186.647 39.5986 187.714 34.2653 189.847 29.316C192.066 24.2813 195.01 19.9293 198.679 16.26C202.434 12.5053 206.786 9.56131 211.735 7.42798C216.77 5.20931 222.103 4.09998 227.735 4.09998C233.452 4.09998 238.786 5.20931 243.735 7.42798C248.77 9.56131 253.122 12.5053 256.791 16.26C260.546 19.9293 263.49 24.2813 265.623 29.316C267.842 34.2653 268.951 39.5986 268.951 45.316V93.316H248.343ZM248.343 59.012V45.316C248.343 42.5 247.788 39.8546 246.679 37.38C245.655 34.82 244.204 32.6013 242.327 30.724C240.45 28.8466 238.231 27.396 235.671 26.372C233.196 25.2626 230.551 24.708 227.735 24.708C224.919 24.708 222.231 25.2626 219.671 26.372C217.196 27.396 215.02 28.8466 213.143 30.724C211.266 32.6013 209.772 34.82 208.663 37.38C207.639 39.8546 207.127 42.5 207.127 45.316V59.012H248.343ZM314.979 4.22797C320.611 4.22797 325.902 5.33731 330.851 7.55598C335.886 9.68931 340.238 12.6333 343.907 16.388C347.662 20.0573 350.606 24.4093 352.739 29.444C354.958 34.3933 356.067 39.684 356.067 45.316V52.228C356.067 57.86 354.958 63.1933 352.739 68.228C350.606 73.1773 347.662 77.5293 343.907 81.284C340.238 84.9533 335.886 87.8973 330.851 90.116C325.902 92.2493 320.611 93.316 314.979 93.316H280.675V4.22797H314.979ZM335.587 45.316C335.587 42.5 335.032 39.8546 333.923 37.38C332.899 34.82 331.448 32.644 329.571 30.852C327.694 28.9746 325.475 27.524 322.915 26.5C320.44 25.3906 317.795 24.836 314.979 24.836H301.283V72.836H314.979C317.795 72.836 320.44 72.324 322.915 71.3C325.475 70.1906 327.694 68.6973 329.571 66.82C331.448 64.9426 332.899 62.7666 333.923 60.292C335.032 57.732 335.587 55.044 335.587 52.228V45.316ZM463.569 4.09998H484.177V93.316H436.049H422.353C414.758 93.316 407.633 91.908 400.977 89.092C394.321 86.1906 388.518 82.2653 383.569 77.316C378.62 72.2813 374.694 66.436 371.793 59.78C368.977 53.124 367.569 45.9986 367.569 38.404V4.09998H388.049V38.404C388.049 42.5853 388.732 46.5533 390.097 50.308C391.548 53.9773 393.468 57.3053 395.857 60.292C398.332 63.2786 401.233 65.796 404.561 67.844C407.974 69.892 411.644 71.3 415.569 72.068V4.09998H436.049V72.708H463.569V4.09998ZM558.043 93.316V79.62H516.827V93.316H496.347V45.316C496.347 39.5986 497.414 34.2653 499.547 29.316C501.766 24.2813 504.71 19.9293 508.379 16.26C512.134 12.5053 516.486 9.56131 521.435 7.42798C526.47 5.20931 531.803 4.09998 537.435 4.09998C543.152 4.09998 548.486 5.20931 553.435 7.42798C558.47 9.56131 562.822 12.5053 566.491 16.26C570.246 19.9293 573.19 24.2813 575.323 29.316C577.542 34.2653 578.651 39.5986 578.651 45.316V93.316H558.043ZM558.043 59.012V45.316C558.043 42.5 557.488 39.8546 556.379 37.38C555.355 34.82 553.904 32.6013 552.027 30.724C550.15 28.8466 547.931 27.396 545.371 26.372C542.896 25.2626 540.251 24.708 537.435 24.708C534.619 24.708 531.931 25.2626 529.371 26.372C526.896 27.396 524.72 28.8466 522.843 30.724C520.966 32.6013 519.472 34.82 518.363 37.38C517.339 39.8546 516.827 42.5 516.827 45.316V59.012H558.043ZM641.063 61.444C644.988 60.5906 648.572 59.3533 651.815 57.732C655.058 56.0253 658.172 53.8493 661.159 51.204C665.255 55.3853 668.199 59.6946 669.991 64.132C671.783 68.5693 672.679 73.732 672.679 79.62V93.316H652.071V79.62C652.071 75.78 651.09 72.2386 649.127 68.996C647.164 65.7533 644.476 63.236 641.063 61.444ZM652.071 4.22797H672.679V17.924C672.679 23.556 671.57 28.8893 669.351 33.924C667.218 38.8733 664.274 43.2253 660.519 46.98C656.85 50.6493 652.498 53.5933 647.463 55.812C642.514 57.9453 637.18 59.012 631.463 59.012C628.647 59.012 625.959 59.5666 623.399 60.676C620.924 61.7 618.748 63.1506 616.871 65.028C614.994 66.9053 613.5 69.124 612.391 71.684C611.367 74.1586 610.855 76.804 610.855 79.62V93.316H590.375V79.62C590.375 73.988 591.442 68.6973 593.575 63.748C595.794 58.7133 598.738 54.3613 602.407 50.692C606.162 46.9373 610.514 43.9933 615.463 41.86C620.498 39.6413 625.831 38.532 631.463 38.532C634.279 38.532 636.924 38.02 639.399 36.996C641.959 35.8866 644.178 34.3933 646.055 32.516C647.932 30.6386 649.383 28.4626 650.407 25.988C651.516 23.428 652.071 20.74 652.071 17.924V4.22797ZM610.855 17.924C610.855 21.764 611.836 25.3053 613.799 28.548C615.762 31.7906 618.45 34.308 621.863 36.1C617.938 37.0386 614.354 38.3186 611.111 39.94C607.868 41.5613 604.754 43.6946 601.767 46.34C597.671 42.1586 594.727 37.8493 592.935 33.412C591.228 28.9746 590.375 23.812 590.375 17.924V4.22797H610.855V17.924Z"/>
</mask>
<path d="M46.404 4.22797C52.036 4.22797 57.3267 5.33731 62.276 7.55598C67.3107 9.68931 71.6627 12.6333 75.332 16.388C79.0867 20.0573 82.0307 24.4093 84.164 29.444C86.3827 34.3933 87.492 39.684 87.492 45.316V52.228C87.492 57.86 86.3827 63.1933 84.164 68.228C82.0307 73.1773 79.0867 77.5293 75.332 81.284C71.6627 84.9533 67.3107 87.8973 62.276 90.116C57.3267 92.2493 52.036 93.316 46.404 93.316H12.1V4.22797H46.404ZM67.012 45.316C67.012 42.5 66.4573 39.8546 65.348 37.38C64.324 34.82 62.8733 32.644 60.996 30.852C59.1187 28.9746 56.9 27.524 54.34 26.5C51.8653 25.3906 49.22 24.836 46.404 24.836H32.708V72.836H46.404C49.22 72.836 51.8653 72.324 54.34 71.3C56.9 70.1906 59.1187 68.6973 60.996 66.82C62.8733 64.9426 64.324 62.7666 65.348 60.292C66.4573 57.732 67.012 55.044 67.012 52.228V45.316ZM98.994 45.316C98.994 39.684 100.061 34.3933 102.194 29.444C104.413 24.4093 107.357 20.0573 111.026 16.388C114.781 12.6333 119.133 9.68931 124.082 7.55598C129.117 5.33731 134.45 4.22797 140.082 4.22797H174.386V24.836H140.082C135.73 24.836 131.762 26.0733 128.178 28.548C124.679 31.0226 122.205 34.3506 120.754 38.532H174.386V59.012H120.754C122.205 63.1933 124.679 66.564 128.178 69.124C131.762 71.5986 135.73 72.836 140.082 72.836H174.386V93.316H140.082C134.45 93.316 129.117 92.2493 124.082 90.116C119.133 87.8973 114.781 84.9533 111.026 81.284C107.357 77.5293 104.413 73.1773 102.194 68.228C100.061 63.1933 98.994 57.86 98.994 52.228V45.316ZM248.343 93.316V79.62H207.127V93.316H186.647V45.316C186.647 39.5986 187.714 34.2653 189.847 29.316C192.066 24.2813 195.01 19.9293 198.679 16.26C202.434 12.5053 206.786 9.56131 211.735 7.42798C216.77 5.20931 222.103 4.09998 227.735 4.09998C233.452 4.09998 238.786 5.20931 243.735 7.42798C248.77 9.56131 253.122 12.5053 256.791 16.26C260.546 19.9293 263.49 24.2813 265.623 29.316C267.842 34.2653 268.951 39.5986 268.951 45.316V93.316H248.343ZM248.343 59.012V45.316C248.343 42.5 247.788 39.8546 246.679 37.38C245.655 34.82 244.204 32.6013 242.327 30.724C240.45 28.8466 238.231 27.396 235.671 26.372C233.196 25.2626 230.551 24.708 227.735 24.708C224.919 24.708 222.231 25.2626 219.671 26.372C217.196 27.396 215.02 28.8466 213.143 30.724C211.266 32.6013 209.772 34.82 208.663 37.38C207.639 39.8546 207.127 42.5 207.127 45.316V59.012H248.343ZM314.979 4.22797C320.611 4.22797 325.902 5.33731 330.851 7.55598C335.886 9.68931 340.238 12.6333 343.907 16.388C347.662 20.0573 350.606 24.4093 352.739 29.444C354.958 34.3933 356.067 39.684 356.067 45.316V52.228C356.067 57.86 354.958 63.1933 352.739 68.228C350.606 73.1773 347.662 77.5293 343.907 81.284C340.238 84.9533 335.886 87.8973 330.851 90.116C325.902 92.2493 320.611 93.316 314.979 93.316H280.675V4.22797H314.979ZM335.587 45.316C335.587 42.5 335.032 39.8546 333.923 37.38C332.899 34.82 331.448 32.644 329.571 30.852C327.694 28.9746 325.475 27.524 322.915 26.5C320.44 25.3906 317.795 24.836 314.979 24.836H301.283V72.836H314.979C317.795 72.836 320.44 72.324 322.915 71.3C325.475 70.1906 327.694 68.6973 329.571 66.82C331.448 64.9426 332.899 62.7666 333.923 60.292C335.032 57.732 335.587 55.044 335.587 52.228V45.316ZM463.569 4.09998H484.177V93.316H436.049H422.353C414.758 93.316 407.633 91.908 400.977 89.092C394.321 86.1906 388.518 82.2653 383.569 77.316C378.62 72.2813 374.694 66.436 371.793 59.78C368.977 53.124 367.569 45.9986 367.569 38.404V4.09998H388.049V38.404C388.049 42.5853 388.732 46.5533 390.097 50.308C391.548 53.9773 393.468 57.3053 395.857 60.292C398.332 63.2786 401.233 65.796 404.561 67.844C407.974 69.892 411.644 71.3 415.569 72.068V4.09998H436.049V72.708H463.569V4.09998ZM558.043 93.316V79.62H516.827V93.316H496.347V45.316C496.347 39.5986 497.414 34.2653 499.547 29.316C501.766 24.2813 504.71 19.9293 508.379 16.26C512.134 12.5053 516.486 9.56131 521.435 7.42798C526.47 5.20931 531.803 4.09998 537.435 4.09998C543.152 4.09998 548.486 5.20931 553.435 7.42798C558.47 9.56131 562.822 12.5053 566.491 16.26C570.246 19.9293 573.19 24.2813 575.323 29.316C577.542 34.2653 578.651 39.5986 578.651 45.316V93.316H558.043ZM558.043 59.012V45.316C558.043 42.5 557.488 39.8546 556.379 37.38C555.355 34.82 553.904 32.6013 552.027 30.724C550.15 28.8466 547.931 27.396 545.371 26.372C542.896 25.2626 540.251 24.708 537.435 24.708C534.619 24.708 531.931 25.2626 529.371 26.372C526.896 27.396 524.72 28.8466 522.843 30.724C520.966 32.6013 519.472 34.82 518.363 37.38C517.339 39.8546 516.827 42.5 516.827 45.316V59.012H558.043ZM641.063 61.444C644.988 60.5906 648.572 59.3533 651.815 57.732C655.058 56.0253 658.172 53.8493 661.159 51.204C665.255 55.3853 668.199 59.6946 669.991 64.132C671.783 68.5693 672.679 73.732 672.679 79.62V93.316H652.071V79.62C652.071 75.78 651.09 72.2386 649.127 68.996C647.164 65.7533 644.476 63.236 641.063 61.444ZM652.071 4.22797H672.679V17.924C672.679 23.556 671.57 28.8893 669.351 33.924C667.218 38.8733 664.274 43.2253 660.519 46.98C656.85 50.6493 652.498 53.5933 647.463 55.812C642.514 57.9453 637.18 59.012 631.463 59.012C628.647 59.012 625.959 59.5666 623.399 60.676C620.924 61.7 618.748 63.1506 616.871 65.028C614.994 66.9053 613.5 69.124 612.391 71.684C611.367 74.1586 610.855 76.804 610.855 79.62V93.316H590.375V79.62C590.375 73.988 591.442 68.6973 593.575 63.748C595.794 58.7133 598.738 54.3613 602.407 50.692C606.162 46.9373 610.514 43.9933 615.463 41.86C620.498 39.6413 625.831 38.532 631.463 38.532C634.279 38.532 636.924 38.02 639.399 36.996C641.959 35.8866 644.178 34.3933 646.055 32.516C647.932 30.6386 649.383 28.4626 650.407 25.988C651.516 23.428 652.071 20.74 652.071 17.924V4.22797ZM610.855 17.924C610.855 21.764 611.836 25.3053 613.799 28.548C615.762 31.7906 618.45 34.308 621.863 36.1C617.938 37.0386 614.354 38.3186 611.111 39.94C607.868 41.5613 604.754 43.6946 601.767 46.34C597.671 42.1586 594.727 37.8493 592.935 33.412C591.228 28.9746 590.375 23.812 590.375 17.924V4.22797H610.855V17.924Z" fill="url(#paint0_linear_4_4)"/>
<path d="M62.276 7.55598L61.4579 9.381L61.4767 9.38943L61.4957 9.39748L62.276 7.55598ZM75.332 16.388L73.9016 17.7858L73.9177 17.8023L73.9341 17.8184L75.332 16.388ZM84.164 29.444L82.3225 30.2243L82.3306 30.2433L82.339 30.2621L84.164 29.444ZM84.164 68.228L82.3338 67.4215L82.3306 67.4289L82.3274 67.4363L84.164 68.228ZM75.332 81.284L73.9178 79.8698V79.8698L75.332 81.284ZM62.276 90.116L63.0677 91.9526L63.0751 91.9494L63.0825 91.9462L62.276 90.116ZM12.1 93.316H10.1V95.316H12.1V93.316ZM12.1 4.22797V2.22797H10.1V4.22797H12.1ZM65.348 37.38L63.4911 38.1228L63.5063 38.1608L63.523 38.1981L65.348 37.38ZM60.996 30.852L59.5818 32.2662L59.5982 32.2826L59.6151 32.2987L60.996 30.852ZM54.34 26.5L53.5219 28.325L53.5592 28.3417L53.5972 28.3569L54.34 26.5ZM32.708 24.836V22.836H30.708V24.836H32.708ZM32.708 72.836H30.708V74.836H32.708V72.836ZM54.34 71.3L55.1047 73.148L55.12 73.1417L55.1352 73.1351L54.34 71.3ZM60.996 66.82L62.4102 68.2342V68.2342L60.996 66.82ZM65.348 60.292L63.5129 59.4968L63.5063 59.512L63.5 59.5273L65.348 60.292ZM46.404 4.22797V6.22797C51.7651 6.22797 56.7758 7.28213 61.4579 9.381L62.276 7.55598L63.0941 5.73096C57.8775 3.39249 52.3069 2.22797 46.404 2.22797V4.22797ZM62.276 7.55598L61.4957 9.39748C66.2968 11.4318 70.4252 14.2285 73.9016 17.7858L75.332 16.388L76.7624 14.9901C72.9002 11.0381 68.3246 7.94679 63.0563 5.71447L62.276 7.55598ZM75.332 16.388L73.9341 17.8184C77.4915 21.2948 80.2882 25.4232 82.3225 30.2243L84.164 29.444L86.0055 28.6637C83.7732 23.3954 80.6819 18.8198 76.7299 14.9576L75.332 16.388ZM84.164 29.444L82.339 30.2621C84.4379 34.9442 85.492 39.9549 85.492 45.316H87.492H89.492C89.492 39.4131 88.3275 33.8424 85.989 28.6259L84.164 29.444ZM87.492 45.316H85.492V52.228H87.492H89.492V45.316H87.492ZM87.492 52.228H85.492C85.492 57.589 84.4378 62.647 82.3338 67.4215L84.164 68.228L85.9942 69.0345C88.3275 63.7396 89.492 58.1309 89.492 52.228H87.492ZM84.164 68.228L82.3274 67.4363C80.2927 72.1568 77.4908 76.2968 73.9178 79.8698L75.332 81.284L76.7462 82.6982C80.6825 78.7619 83.7687 74.1978 86.0007 69.0196L84.164 68.228ZM75.332 81.284L73.9178 79.8698C70.4339 83.3537 66.2914 86.1609 61.4695 88.2858L62.276 90.116L63.0825 91.9462C68.33 89.6337 72.8915 86.5529 76.7462 82.6982L75.332 81.284ZM62.276 90.116L61.4843 88.2793C56.7963 90.3001 51.7762 91.316 46.404 91.316V93.316V95.316C52.2958 95.316 57.8571 94.1986 63.0677 91.9526L62.276 90.116ZM46.404 93.316V91.316H12.1V93.316V95.316H46.404V93.316ZM12.1 93.316H14.1V4.22797H12.1H10.1V93.316H12.1ZM12.1 4.22797V6.22797H46.404V4.22797V2.22797H12.1V4.22797ZM67.012 45.316H69.012C69.012 42.2291 68.4022 39.3038 67.173 36.5619L65.348 37.38L63.523 38.1981C64.5125 40.4055 65.012 42.7709 65.012 45.316H67.012ZM65.348 37.38L67.205 36.6372C66.0813 33.8281 64.4743 31.4073 62.377 29.4053L60.996 30.852L59.6151 32.2987C61.2723 33.8806 62.5667 35.8119 63.4911 38.1228L65.348 37.38ZM60.996 30.852L62.4102 29.4378C60.334 27.3615 57.8844 25.7637 55.0828 24.643L54.34 26.5L53.5972 28.3569C55.9156 29.2843 57.9034 30.5878 59.5818 32.2662L60.996 30.852ZM54.34 26.5L55.1581 24.675C52.4162 23.4458 49.4909 22.836 46.404 22.836V24.836V26.836C48.9491 26.836 51.3145 27.3355 53.5219 28.325L54.34 26.5ZM46.404 24.836V22.836H32.708V24.836V26.836H46.404V24.836ZM32.708 24.836H30.708V72.836H32.708H34.708V24.836H32.708ZM32.708 72.836V74.836H46.404V72.836V70.836H32.708V72.836ZM46.404 72.836V74.836C49.4687 74.836 52.3752 74.2775 55.1047 73.148L54.34 71.3L53.5753 69.4519C51.3555 70.3705 48.9713 70.836 46.404 70.836V72.836ZM54.34 71.3L55.1352 73.1351C57.9143 71.9308 60.3459 70.2985 62.4102 68.2342L60.996 66.82L59.5818 65.4058C57.8914 67.0961 55.8857 68.4505 53.5448 69.4649L54.34 71.3ZM60.996 66.82L62.4102 68.2342C64.4751 66.1693 66.0724 63.7721 67.196 61.0567L65.348 60.292L63.5 59.5273C62.5756 61.7612 61.2716 63.716 59.5818 65.4058L60.996 66.82ZM65.348 60.292L67.1831 61.0872C68.4023 58.2738 69.012 55.3149 69.012 52.228H67.012H65.012C65.012 54.773 64.5124 57.1902 63.5129 59.4968L65.348 60.292ZM67.012 52.228H69.012V45.316H67.012H65.012V52.228H67.012ZM102.194 29.444L100.364 28.6375L100.361 28.6449L100.357 28.6523L102.194 29.444ZM111.026 16.388L112.44 17.8022V17.8022L111.026 16.388ZM124.082 7.55598L124.874 9.39262L124.881 9.38942L124.889 9.38615L124.082 7.55598ZM174.386 4.22797H176.386V2.22797H174.386V4.22797ZM174.386 24.836V26.836H176.386V24.836H174.386ZM128.178 28.548L127.042 26.9022L127.032 26.9086L127.023 26.9151L128.178 28.548ZM120.754 38.532L118.864 37.8764L117.943 40.532H120.754V38.532ZM174.386 38.532H176.386V36.532H174.386V38.532ZM174.386 59.012V61.012H176.386V59.012H174.386ZM120.754 59.012V57.012H117.943L118.864 59.6675L120.754 59.012ZM128.178 69.124L126.997 70.738L127.019 70.7542L127.042 70.7698L128.178 69.124ZM174.386 72.836H176.386V70.836H174.386V72.836ZM174.386 93.316V95.316H176.386V93.316H174.386ZM124.082 90.116L123.264 91.941L123.283 91.9494L123.302 91.9575L124.082 90.116ZM111.026 81.284L109.596 82.6818L109.612 82.6983L109.628 82.7144L111.026 81.284ZM102.194 68.228L100.353 69.0083L100.361 69.0273L100.369 69.0461L102.194 68.228ZM98.994 45.316H100.994C100.994 39.9437 102.01 34.9237 104.031 30.2356L102.194 29.444L100.357 28.6523C98.1114 33.8629 96.994 39.4242 96.994 45.316H98.994ZM102.194 29.444L104.024 30.2505C106.149 25.4286 108.956 21.2861 112.44 17.8022L111.026 16.388L109.612 14.9738C105.757 18.8285 102.676 23.39 100.364 28.6375L102.194 29.444ZM111.026 16.388L112.44 17.8022C116.013 14.2292 120.153 11.4273 124.874 9.39262L124.082 7.55598L123.29 5.71933C118.112 7.95129 113.548 11.0374 109.612 14.9738L111.026 16.388ZM124.082 7.55598L124.889 9.38615C129.663 7.28216 134.721 6.22797 140.082 6.22797V4.22797V2.22797C134.179 2.22797 128.57 3.39246 123.275 5.72581L124.082 7.55598ZM140.082 4.22797V6.22797H174.386V4.22797V2.22797H140.082V4.22797ZM174.386 4.22797H172.386V24.836H174.386H176.386V4.22797H174.386ZM174.386 24.836V22.836H140.082V24.836V26.836H174.386V24.836ZM140.082 24.836V22.836C135.324 22.836 130.959 24.197 127.042 26.9022L128.178 28.548L129.314 30.1938C132.565 27.9496 136.136 26.836 140.082 26.836V24.836ZM128.178 28.548L127.023 26.9151C123.172 29.6392 120.447 33.3144 118.864 37.8764L120.754 38.532L122.644 39.1875C123.962 35.3868 126.187 32.4061 129.333 30.1808L128.178 28.548ZM120.754 38.532V40.532H174.386V38.532V36.532H120.754V38.532ZM174.386 38.532H172.386V59.012H174.386H176.386V38.532H174.386ZM174.386 59.012V57.012H120.754V59.012V61.012H174.386V59.012ZM120.754 59.012L118.864 59.6675C120.445 64.2244 123.163 67.9327 126.997 70.738L128.178 69.124L129.359 67.5099C126.196 65.1953 123.964 62.1622 122.644 58.3564L120.754 59.012ZM128.178 69.124L127.042 70.7698C130.959 73.4749 135.324 74.836 140.082 74.836V72.836V70.836C136.136 70.836 132.565 69.7224 129.314 67.4782L128.178 69.124ZM140.082 72.836V74.836H174.386V72.836V70.836H140.082V72.836ZM174.386 72.836H172.386V93.316H174.386H176.386V72.836H174.386ZM174.386 93.316V91.316H140.082V93.316V95.316H174.386V93.316ZM140.082 93.316V91.316C134.71 91.316 129.643 90.3 124.862 88.2745L124.082 90.116L123.302 91.9575C128.591 94.1986 134.19 95.316 140.082 95.316V93.316ZM124.082 90.116L124.9 88.291C120.159 86.1654 116.004 83.3528 112.424 79.8536L111.026 81.284L109.628 82.7144C113.557 86.5538 118.107 89.6292 123.264 91.941L124.082 90.116ZM111.026 81.284L112.456 79.8861C108.957 76.3055 106.145 72.1514 104.019 67.4099L102.194 68.228L100.369 69.0461C102.681 74.2032 105.756 78.7531 109.596 82.6818L111.026 81.284ZM102.194 68.228L104.036 67.4477C102.01 62.6673 100.994 57.6001 100.994 52.228H98.994H96.994C96.994 58.1198 98.1114 63.7193 100.353 69.0083L102.194 68.228ZM98.994 52.228H100.994V45.316H98.994H96.994V52.228H98.994ZM248.343 93.316H246.343V95.316H248.343V93.316ZM248.343 79.62H250.343V77.62H248.343V79.62ZM207.127 79.62V77.62H205.127V79.62H207.127ZM207.127 93.316V95.316H209.127V93.316H207.127ZM186.647 93.316H184.647V95.316H186.647V93.316ZM189.847 29.316L188.017 28.5095L188.014 28.5169L188.01 28.5243L189.847 29.316ZM198.679 16.26L197.265 14.8458V14.8458L198.679 16.26ZM211.735 7.42798L212.527 9.26463L212.534 9.26142L212.542 9.25815L211.735 7.42798ZM243.735 7.42798L242.917 9.253L242.936 9.26144L242.955 9.26949L243.735 7.42798ZM256.791 16.26L255.361 17.6578L255.377 17.6743L255.393 17.6903L256.791 16.26ZM265.623 29.316L263.782 30.0963L263.79 30.1153L263.798 30.1341L265.623 29.316ZM268.951 93.316V95.316H270.951V93.316H268.951ZM248.343 59.012V61.012H250.343V59.012H248.343ZM246.679 37.38L244.822 38.1228L244.837 38.1608L244.854 38.1981L246.679 37.38ZM242.327 30.724L240.913 32.1382V32.1382L242.327 30.724ZM235.671 26.372L234.853 28.197L234.89 28.2137L234.928 28.2289L235.671 26.372ZM219.671 26.372L220.436 28.22L220.451 28.2137L220.466 28.2071L219.671 26.372ZM208.663 37.38L206.828 36.5848L206.821 36.6L206.815 36.6153L208.663 37.38ZM207.127 59.012H205.127V61.012H207.127V59.012ZM248.343 93.316H250.343V79.62H248.343H246.343V93.316H248.343ZM248.343 79.62V77.62H207.127V79.62V81.62H248.343V79.62ZM207.127 79.62H205.127V93.316H207.127H209.127V79.62H207.127ZM207.127 93.316V91.316H186.647V93.316V95.316H207.127V93.316ZM186.647 93.316H188.647V45.316H186.647H184.647V93.316H186.647ZM186.647 45.316H188.647C188.647 39.8541 189.665 34.792 191.684 30.1076L189.847 29.316L188.01 28.5243C185.763 33.7387 184.647 39.3432 184.647 45.316H186.647ZM189.847 29.316L191.677 30.1225C193.802 25.3006 196.609 21.1581 200.093 17.6742L198.679 16.26L197.265 14.8458C193.41 18.7005 190.329 23.262 188.017 28.5095L189.847 29.316ZM198.679 16.26L200.093 17.6742C203.666 14.1012 207.806 11.2993 212.527 9.26463L211.735 7.42798L210.943 5.59133C205.765 7.82329 201.201 10.9094 197.265 14.8458L198.679 16.26ZM211.735 7.42798L212.542 9.25815C217.316 7.15416 222.374 6.09998 227.735 6.09998V4.09998V2.09998C221.832 2.09998 216.223 3.26446 210.928 5.59781L211.735 7.42798ZM227.735 4.09998V6.09998C233.186 6.09998 238.239 7.15588 242.917 9.253L243.735 7.42798L244.553 5.60296C239.333 3.26274 233.719 2.09998 227.735 2.09998V4.09998ZM243.735 7.42798L242.955 9.26949C247.756 11.3038 251.884 14.1005 255.361 17.6578L256.791 16.26L258.221 14.8621C254.359 10.9101 249.784 7.81879 244.515 5.58647L243.735 7.42798ZM256.791 16.26L255.393 17.6903C258.95 21.1668 261.747 25.2952 263.782 30.0963L265.623 29.316L267.465 28.5357C265.232 23.2674 262.141 18.6918 258.189 14.8296L256.791 16.26ZM265.623 29.316L263.798 30.1341C265.895 34.8123 266.951 39.8651 266.951 45.316H268.951H270.951C270.951 39.3322 269.788 33.7183 267.448 28.4979L265.623 29.316ZM268.951 45.316H266.951V93.316H268.951H270.951V45.316H268.951ZM268.951 93.316V91.316H248.343V93.316V95.316H268.951V93.316ZM248.343 59.012H250.343V45.316H248.343H246.343V59.012H248.343ZM248.343 45.316H250.343C250.343 42.2291 249.733 39.3038 248.504 36.5619L246.679 37.38L244.854 38.1981C245.844 40.4055 246.343 42.7709 246.343 45.316H248.343ZM246.679 37.38L248.536 36.6372C247.415 33.8356 245.817 31.386 243.741 29.3098L242.327 30.724L240.913 32.1382C242.591 33.8166 243.895 35.8043 244.822 38.1228L246.679 37.38ZM242.327 30.724L243.741 29.3098C241.665 27.2335 239.215 25.6357 236.414 24.515L235.671 26.372L234.928 28.2289C237.247 29.1563 239.234 30.4598 240.913 32.1382L242.327 30.724ZM235.671 26.372L236.489 24.547C233.747 23.3178 230.822 22.708 227.735 22.708V24.708V26.708C230.28 26.708 232.645 27.2075 234.853 28.197L235.671 26.372ZM227.735 24.708V22.708C224.648 22.708 221.689 23.3177 218.876 24.5369L219.671 26.372L220.466 28.2071C222.773 27.2076 225.19 26.708 227.735 26.708V24.708ZM219.671 26.372L218.906 24.5239C216.191 25.6476 213.794 27.2449 211.729 29.3098L213.143 30.724L214.557 32.1382C216.247 30.4484 218.202 29.1444 220.436 28.22L219.671 26.372ZM213.143 30.724L211.729 29.3098C209.665 31.3741 208.032 33.8057 206.828 36.5848L208.663 37.38L210.498 38.1752C211.513 35.8343 212.867 33.8286 214.557 32.1382L213.143 30.724ZM208.663 37.38L206.815 36.6153C205.686 39.3448 205.127 42.2513 205.127 45.316H207.127H209.127C209.127 42.7487 209.592 40.3645 210.511 38.1447L208.663 37.38ZM207.127 45.316H205.127V59.012H207.127H209.127V45.316H207.127ZM207.127 59.012V61.012H248.343V59.012V57.012H207.127V59.012ZM330.851 7.55598L330.033 9.381L330.052 9.38943L330.071 9.39748L330.851 7.55598ZM343.907 16.388L342.477 17.7858L342.493 17.8023L342.509 17.8184L343.907 16.388ZM352.739 29.444L350.898 30.2243L350.906 30.2433L350.914 30.2621L352.739 29.444ZM352.739 68.228L350.909 67.4215L350.906 67.4289L350.902 67.4363L352.739 68.228ZM343.907 81.284L342.493 79.8698V79.8698L343.907 81.284ZM330.851 90.116L331.643 91.9526L331.65 91.9494L331.658 91.9462L330.851 90.116ZM280.675 93.316H278.675V95.316H280.675V93.316ZM280.675 4.22797V2.22797H278.675V4.22797H280.675ZM333.923 37.38L332.066 38.1228L332.081 38.1608L332.098 38.1981L333.923 37.38ZM329.571 30.852L328.157 32.2662L328.173 32.2826L328.19 32.2987L329.571 30.852ZM322.915 26.5L322.097 28.325L322.134 28.3417L322.172 28.3569L322.915 26.5ZM301.283 24.836V22.836H299.283V24.836H301.283ZM301.283 72.836H299.283V74.836H301.283V72.836ZM322.915 71.3L323.68 73.148L323.695 73.1417L323.71 73.1351L322.915 71.3ZM329.571 66.82L330.985 68.2342V68.2342L329.571 66.82ZM333.923 60.292L332.088 59.4968L332.081 59.512L332.075 59.5273L333.923 60.292ZM314.979 4.22797V6.22797C320.34 6.22797 325.351 7.28213 330.033 9.381L330.851 7.55598L331.669 5.73096C326.453 3.39249 320.882 2.22797 314.979 2.22797V4.22797ZM330.851 7.55598L330.071 9.39748C334.872 11.4318 339 14.2285 342.477 17.7858L343.907 16.388L345.337 14.9901C341.475 11.0381 336.9 7.94679 331.631 5.71447L330.851 7.55598ZM343.907 16.388L342.509 17.8184C346.066 21.2948 348.863 25.4232 350.898 30.2243L352.739 29.444L354.581 28.6637C352.348 23.3954 349.257 18.8198 345.305 14.9576L343.907 16.388ZM352.739 29.444L350.914 30.2621C353.013 34.9442 354.067 39.9549 354.067 45.316H356.067H358.067C358.067 39.4131 356.902 33.8424 354.564 28.6259L352.739 29.444ZM356.067 45.316H354.067V52.228H356.067H358.067V45.316H356.067ZM356.067 52.228H354.067C354.067 57.589 353.013 62.647 350.909 67.4215L352.739 68.228L354.569 69.0345C356.903 63.7396 358.067 58.1309 358.067 52.228H356.067ZM352.739 68.228L350.902 67.4363C348.868 72.1568 346.066 76.2968 342.493 79.8698L343.907 81.284L345.321 82.6982C349.258 78.7619 352.344 74.1978 354.576 69.0196L352.739 68.228ZM343.907 81.284L342.493 79.8698C339.009 83.3537 334.866 86.1609 330.044 88.2858L330.851 90.116L331.658 91.9462C336.905 89.6337 341.466 86.5529 345.321 82.6982L343.907 81.284ZM330.851 90.116L330.059 88.2793C325.371 90.3001 320.351 91.316 314.979 91.316V93.316V95.316C320.871 95.316 326.432 94.1986 331.643 91.9526L330.851 90.116ZM314.979 93.316V91.316H280.675V93.316V95.316H314.979V93.316ZM280.675 93.316H282.675V4.22797H280.675H278.675V93.316H280.675ZM280.675 4.22797V6.22797H314.979V4.22797V2.22797H280.675V4.22797ZM335.587 45.316H337.587C337.587 42.2291 336.977 39.3038 335.748 36.5619L333.923 37.38L332.098 38.1981C333.088 40.4055 333.587 42.7709 333.587 45.316H335.587ZM333.923 37.38L335.78 36.6372C334.656 33.8281 333.049 31.4073 330.952 29.4053L329.571 30.852L328.19 32.2987C329.847 33.8806 331.142 35.8119 332.066 38.1228L333.923 37.38ZM329.571 30.852L330.985 29.4378C328.909 27.3615 326.459 25.7637 323.658 24.643L322.915 26.5L322.172 28.3569C324.491 29.2843 326.478 30.5878 328.157 32.2662L329.571 30.852ZM322.915 26.5L323.733 24.675C320.991 23.4458 318.066 22.836 314.979 22.836V24.836V26.836C317.524 26.836 319.889 27.3355 322.097 28.325L322.915 26.5ZM314.979 24.836V22.836H301.283V24.836V26.836H314.979V24.836ZM301.283 24.836H299.283V72.836H301.283H303.283V24.836H301.283ZM301.283 72.836V74.836H314.979V72.836V70.836H301.283V72.836ZM314.979 72.836V74.836C318.044 74.836 320.95 74.2775 323.68 73.148L322.915 71.3L322.15 69.4519C319.93 70.3705 317.546 70.836 314.979 70.836V72.836ZM322.915 71.3L323.71 73.1351C326.489 71.9308 328.921 70.2985 330.985 68.2342L329.571 66.82L328.157 65.4058C326.466 67.0961 324.461 68.4505 322.12 69.4649L322.915 71.3ZM329.571 66.82L330.985 68.2342C333.05 66.1693 334.647 63.7721 335.771 61.0567L333.923 60.292L332.075 59.5273C331.151 61.7612 329.847 63.716 328.157 65.4058L329.571 66.82ZM333.923 60.292L335.758 61.0872C336.977 58.2738 337.587 55.3149 337.587 52.228H335.587H333.587C333.587 54.773 333.087 57.1902 332.088 59.4968L333.923 60.292ZM335.587 52.228H337.587V45.316H335.587H333.587V52.228H335.587ZM463.569 4.09998V2.09998H461.569V4.09998H463.569ZM484.177 4.09998H486.177V2.09998H484.177V4.09998ZM484.177 93.316V95.316H486.177V93.316H484.177ZM400.977 89.092L400.178 90.9254L400.188 90.9297L400.198 90.9339L400.977 89.092ZM383.569 77.316L382.143 78.7181L382.149 78.7242L382.155 78.7302L383.569 77.316ZM371.793 59.78L369.951 60.5593L369.955 60.5692L369.96 60.5791L371.793 59.78ZM367.569 4.09998V2.09998H365.569V4.09998H367.569ZM388.049 4.09998H390.049V2.09998H388.049V4.09998ZM390.097 50.308L388.217 50.9915L388.227 51.0175L388.237 51.0433L390.097 50.308ZM395.857 60.292L394.295 61.5414L394.306 61.5548L394.317 61.568L395.857 60.292ZM404.561 67.844L403.513 69.5473L403.522 69.5532L403.532 69.559L404.561 67.844ZM415.569 72.068L415.185 74.0308L417.569 74.4972V72.068H415.569ZM415.569 4.09998V2.09998H413.569V4.09998H415.569ZM436.049 4.09998H438.049V2.09998H436.049V4.09998ZM436.049 72.708H434.049V74.708H436.049V72.708ZM463.569 72.708V74.708H465.569V72.708H463.569ZM463.569 4.09998V6.09998H484.177V4.09998V2.09998H463.569V4.09998ZM484.177 4.09998H482.177V93.316H484.177H486.177V4.09998H484.177ZM484.177 93.316V91.316H436.049V93.316V95.316H484.177V93.316ZM436.049 93.316V91.316H422.353V93.316V95.316H436.049V93.316ZM422.353 93.316V91.316C415.012 91.316 408.153 89.9565 401.756 87.25L400.977 89.092L400.198 90.9339C407.113 93.8595 414.504 95.316 422.353 95.316V93.316ZM400.977 89.092L401.776 87.2586C395.341 84.4535 389.749 80.6675 384.983 75.9018L383.569 77.316L382.155 78.7302C387.288 83.8631 393.301 87.9278 400.178 90.9254L400.977 89.092ZM383.569 77.316L384.995 75.9139C380.222 71.0586 376.433 65.4191 373.626 58.9808L371.793 59.78L369.96 60.5791C372.956 67.4528 377.017 73.504 382.143 78.7181L383.569 77.316ZM371.793 59.78L373.635 59.0007C370.929 52.6037 369.569 45.7448 369.569 38.404H367.569H365.569C365.569 46.2525 367.025 53.6442 369.951 60.5593L371.793 59.78ZM367.569 38.404H369.569V4.09998H367.569H365.569V38.404H367.569ZM367.569 4.09998V6.09998H388.049V4.09998V2.09998H367.569V4.09998ZM388.049 4.09998H386.049V38.404H388.049H390.049V4.09998H388.049ZM388.049 38.404H386.049C386.049 42.8074 386.769 47.0076 388.217 50.9915L390.097 50.308L391.977 49.6245C390.695 46.099 390.049 42.3632 390.049 38.404H388.049ZM390.097 50.308L388.237 51.0433C389.759 54.892 391.778 58.3943 394.295 61.5414L395.857 60.292L397.419 59.0426C395.158 56.2164 393.337 53.0626 391.957 49.5727L390.097 50.308ZM395.857 60.292L394.317 61.568C396.932 64.7243 400 67.3856 403.513 69.5473L404.561 67.844L405.609 66.1407C402.466 64.2064 399.731 61.833 397.397 59.0159L395.857 60.292ZM404.561 67.844L403.532 69.559C407.145 71.7269 411.033 73.2184 415.185 74.0308L415.569 72.068L415.953 70.1052C412.254 69.3815 408.803 68.057 405.59 66.129L404.561 67.844ZM415.569 72.068H417.569V4.09998H415.569H413.569V72.068H415.569ZM415.569 4.09998V6.09998H436.049V4.09998V2.09998H415.569V4.09998ZM436.049 4.09998H434.049V72.708H436.049H438.049V4.09998H436.049ZM436.049 72.708V74.708H463.569V72.708V70.708H436.049V72.708ZM463.569 72.708H465.569V4.09998H463.569H461.569V72.708H463.569ZM558.043 93.316H556.043V95.316H558.043V93.316ZM558.043 79.62H560.043V77.62H558.043V79.62ZM516.827 79.62V77.62H514.827V79.62H516.827ZM516.827 93.316V95.316H518.827V93.316H516.827ZM496.347 93.316H494.347V95.316H496.347V93.316ZM499.547 29.316L497.717 28.5095L497.714 28.5169L497.71 28.5243L499.547 29.316ZM508.379 16.26L506.965 14.8458V14.8458L508.379 16.26ZM521.435 7.42798L522.227 9.26463L522.234 9.26142L522.242 9.25815L521.435 7.42798ZM553.435 7.42798L552.617 9.253L552.636 9.26144L552.655 9.26949L553.435 7.42798ZM566.491 16.26L565.061 17.6578L565.077 17.6743L565.093 17.6903L566.491 16.26ZM575.323 29.316L573.482 30.0963L573.49 30.1153L573.498 30.1341L575.323 29.316ZM578.651 93.316V95.316H580.651V93.316H578.651ZM558.043 59.012V61.012H560.043V59.012H558.043ZM556.379 37.38L554.522 38.1228L554.537 38.1608L554.554 38.1981L556.379 37.38ZM552.027 30.724L550.613 32.1382V32.1382L552.027 30.724ZM545.371 26.372L544.553 28.197L544.59 28.2137L544.628 28.2289L545.371 26.372ZM529.371 26.372L530.136 28.22L530.151 28.2137L530.166 28.2071L529.371 26.372ZM518.363 37.38L516.528 36.5848L516.521 36.6L516.515 36.6153L518.363 37.38ZM516.827 59.012H514.827V61.012H516.827V59.012ZM558.043 93.316H560.043V79.62H558.043H556.043V93.316H558.043ZM558.043 79.62V77.62H516.827V79.62V81.62H558.043V79.62ZM516.827 79.62H514.827V93.316H516.827H518.827V79.62H516.827ZM516.827 93.316V91.316H496.347V93.316V95.316H516.827V93.316ZM496.347 93.316H498.347V45.316H496.347H494.347V93.316H496.347ZM496.347 45.316H498.347C498.347 39.8541 499.365 34.792 501.384 30.1076L499.547 29.316L497.71 28.5243C495.463 33.7387 494.347 39.3432 494.347 45.316H496.347ZM499.547 29.316L501.377 30.1225C503.502 25.3006 506.309 21.1581 509.793 17.6742L508.379 16.26L506.965 14.8458C503.11 18.7005 500.029 23.262 497.717 28.5095L499.547 29.316ZM508.379 16.26L509.793 17.6742C513.366 14.1012 517.506 11.2993 522.227 9.26463L521.435 7.42798L520.643 5.59133C515.465 7.82329 510.901 10.9094 506.965 14.8458L508.379 16.26ZM521.435 7.42798L522.242 9.25815C527.016 7.15416 532.074 6.09998 537.435 6.09998V4.09998V2.09998C531.532 2.09998 525.923 3.26446 520.628 5.59781L521.435 7.42798ZM537.435 4.09998V6.09998C542.886 6.09998 547.939 7.15588 552.617 9.253L553.435 7.42798L554.253 5.60296C549.033 3.26274 543.419 2.09998 537.435 2.09998V4.09998ZM553.435 7.42798L552.655 9.26949C557.456 11.3038 561.584 14.1005 565.061 17.6578L566.491 16.26L567.921 14.8621C564.059 10.9101 559.484 7.81879 554.215 5.58647L553.435 7.42798ZM566.491 16.26L565.093 17.6903C568.65 21.1668 571.447 25.2952 573.482 30.0963L575.323 29.316L577.164 28.5357C574.932 23.2674 571.841 18.6918 567.889 14.8296L566.491 16.26ZM575.323 29.316L573.498 30.1341C575.595 34.8123 576.651 39.8651 576.651 45.316H578.651H580.651C580.651 39.3322 579.488 33.7183 577.148 28.4979L575.323 29.316ZM578.651 45.316H576.651V93.316H578.651H580.651V45.316H578.651ZM578.651 93.316V91.316H558.043V93.316V95.316H578.651V93.316ZM558.043 59.012H560.043V45.316H558.043H556.043V59.012H558.043ZM558.043 45.316H560.043C560.043 42.2291 559.433 39.3038 558.204 36.5619L556.379 37.38L554.554 38.1981C555.544 40.4055 556.043 42.7709 556.043 45.316H558.043ZM556.379 37.38L558.236 36.6372C557.115 33.8356 555.517 31.386 553.441 29.3098L552.027 30.724L550.613 32.1382C552.291 33.8166 553.595 35.8043 554.522 38.1228L556.379 37.38ZM552.027 30.724L553.441 29.3098C551.365 27.2335 548.915 25.6357 546.114 24.515L545.371 26.372L544.628 28.2289C546.947 29.1563 548.934 30.4598 550.613 32.1382L552.027 30.724ZM545.371 26.372L546.189 24.547C543.447 23.3178 540.522 22.708 537.435 22.708V24.708V26.708C539.98 26.708 542.345 27.2075 544.553 28.197L545.371 26.372ZM537.435 24.708V22.708C534.348 22.708 531.389 23.3177 528.576 24.5369L529.371 26.372L530.166 28.2071C532.473 27.2076 534.89 26.708 537.435 26.708V24.708ZM529.371 26.372L528.606 24.5239C525.891 25.6476 523.494 27.2449 521.429 29.3098L522.843 30.724L524.257 32.1382C525.947 30.4484 527.902 29.1444 530.136 28.22L529.371 26.372ZM522.843 30.724L521.429 29.3098C519.365 31.3741 517.732 33.8057 516.528 36.5848L518.363 37.38L520.198 38.1752C521.213 35.8343 522.567 33.8286 524.257 32.1382L522.843 30.724ZM518.363 37.38L516.515 36.6153C515.386 39.3448 514.827 42.2513 514.827 45.316H516.827H518.827C518.827 42.7487 519.292 40.3645 520.211 38.1447L518.363 37.38ZM516.827 45.316H514.827V59.012H516.827H518.827V45.316H516.827ZM516.827 59.012V61.012H558.043V59.012V57.012H516.827V59.012ZM641.063 61.444L640.638 59.4896L635.263 60.6581L640.133 63.2148L641.063 61.444ZM651.815 57.732L652.709 59.5208L652.728 59.5115L652.747 59.5018L651.815 57.732ZM661.159 51.204L662.588 49.8044L661.257 48.4457L659.833 49.7068L661.159 51.204ZM669.991 64.132L671.846 63.3831V63.383L669.991 64.132ZM672.679 93.316V95.316H674.679V93.316H672.679ZM652.071 93.316H650.071V95.316H652.071V93.316ZM649.127 68.996L650.838 67.9604V67.9604L649.127 68.996ZM652.071 4.22797V2.22797H650.071V4.22797H652.071ZM672.679 4.22797H674.679V2.22797H672.679V4.22797ZM669.351 33.924L667.521 33.1175L667.518 33.1249L667.514 33.1323L669.351 33.924ZM660.519 46.98L661.933 48.3942V48.3942L660.519 46.98ZM647.463 55.812L648.255 57.6486L648.262 57.6454L648.27 57.6422L647.463 55.812ZM623.399 60.676L624.164 62.524L624.179 62.5177L624.194 62.5111L623.399 60.676ZM612.391 71.684L610.556 70.8888L610.549 70.904L610.543 70.9193L612.391 71.684ZM610.855 93.316V95.316H612.855V93.316H610.855ZM590.375 93.316H588.375V95.316H590.375V93.316ZM593.575 63.748L591.745 62.9415L591.742 62.9489L591.738 62.9563L593.575 63.748ZM602.407 50.692L603.821 52.1062V52.1062L602.407 50.692ZM615.463 41.86L616.255 43.6966L616.262 43.6934L616.27 43.6902L615.463 41.86ZM639.399 36.996L640.164 38.844L640.179 38.8377L640.194 38.8311L639.399 36.996ZM650.407 25.988L648.572 25.1928L648.565 25.208L648.559 25.2233L650.407 25.988ZM613.799 28.548L615.51 27.5124V27.5124L613.799 28.548ZM621.863 36.1L622.328 38.0451L627.51 36.8059L622.793 34.3292L621.863 36.1ZM601.767 46.34L600.338 47.7395L601.669 49.0982L603.093 47.8372L601.767 46.34ZM592.935 33.412L591.068 34.1299L591.074 34.1455L591.081 34.1609L592.935 33.412ZM590.375 4.22797V2.22797H588.375V4.22797H590.375ZM610.855 4.22797H612.855V2.22797H610.855V4.22797ZM641.063 61.444L641.488 63.3983C645.559 62.5134 649.303 61.2242 652.709 59.5208L651.815 57.732L650.921 55.9431C647.842 57.4824 644.418 58.6679 640.638 59.4896L641.063 61.444ZM651.815 57.732L652.747 59.5018C656.143 57.7141 659.389 55.4435 662.485 52.7012L661.159 51.204L659.833 49.7068C656.956 52.2551 653.972 54.3365 650.884 55.9621L651.815 57.732ZM661.159 51.204L659.73 52.6035C663.683 56.6385 666.462 60.7338 668.137 64.8809L669.991 64.132L671.846 63.383C669.936 58.6555 666.827 54.1321 662.588 49.8044L661.159 51.204ZM669.991 64.132L668.137 64.8809C669.813 69.0323 670.679 73.9313 670.679 79.62H672.679H674.679C674.679 73.5326 673.753 68.1063 671.846 63.3831L669.991 64.132ZM672.679 79.62H670.679V93.316H672.679H674.679V79.62H672.679ZM672.679 93.316V91.316H652.071V93.316V95.316H672.679V93.316ZM652.071 93.316H654.071V79.62H652.071H650.071V93.316H652.071ZM652.071 79.62H654.071C654.071 75.4199 652.992 71.5197 650.838 67.9604L649.127 68.996L647.416 70.0316C649.187 72.9576 650.071 76.14 650.071 79.62H652.071ZM649.127 68.996L650.838 67.9604C648.683 64.4005 645.723 61.6315 641.993 59.6732L641.063 61.444L640.133 63.2148C643.23 64.8405 645.645 67.1061 647.416 70.0316L649.127 68.996ZM652.071 4.22797V6.22797H672.679V4.22797V2.22797H652.071V4.22797ZM672.679 4.22797H670.679V17.924H672.679H674.679V4.22797H672.679ZM672.679 17.924H670.679C670.679 23.285 669.625 28.343 667.521 33.1175L669.351 33.924L671.181 34.7305C673.515 29.4356 674.679 23.8269 674.679 17.924H672.679ZM669.351 33.924L667.514 33.1323C665.48 37.8528 662.678 41.9927 659.105 45.5658L660.519 46.98L661.933 48.3942C665.87 44.4579 668.956 39.8938 671.188 34.7156L669.351 33.924ZM660.519 46.98L659.105 45.5658C655.621 49.0497 651.478 51.8569 646.656 53.9818L647.463 55.812L648.27 57.6422C653.517 55.3297 658.078 52.249 661.933 48.3942L660.519 46.98ZM647.463 55.812L646.671 53.9753C641.987 55.9944 636.925 57.012 631.463 57.012V59.012V61.012C637.436 61.012 643.04 59.8962 648.255 57.6486L647.463 55.812ZM631.463 59.012V57.012C628.376 57.012 625.417 57.6217 622.604 58.8409L623.399 60.676L624.194 62.5111C626.501 61.5116 628.918 61.012 631.463 61.012V59.012ZM623.399 60.676L622.634 58.8279C619.919 59.9516 617.522 61.5489 615.457 63.6138L616.871 65.028L618.285 66.4422C619.975 64.7524 621.93 63.4484 624.164 62.524L623.399 60.676ZM616.871 65.028L615.457 63.6138C613.393 65.6781 611.76 68.1097 610.556 70.8888L612.391 71.684L614.226 72.4792C615.241 70.1383 616.595 68.1326 618.285 66.4422L616.871 65.028ZM612.391 71.684L610.543 70.9193C609.414 73.6488 608.855 76.5553 608.855 79.62H610.855H612.855C612.855 77.0527 613.32 74.6685 614.239 72.4487L612.391 71.684ZM610.855 79.62H608.855V93.316H610.855H612.855V79.62H610.855ZM610.855 93.316V91.316H590.375V93.316V95.316H610.855V93.316ZM590.375 93.316H592.375V79.62H590.375H588.375V93.316H590.375ZM590.375 79.62H592.375C592.375 74.2477 593.391 69.2277 595.412 64.5396L593.575 63.748L591.738 62.9563C589.492 68.1669 588.375 73.7282 588.375 79.62H590.375ZM593.575 63.748L595.405 64.5545C597.53 59.7326 600.337 55.5901 603.821 52.1062L602.407 50.692L600.993 49.2778C597.138 53.1325 594.057 57.694 591.745 62.9415L593.575 63.748ZM602.407 50.692L603.821 52.1062C607.394 48.5332 611.534 45.7313 616.255 43.6966L615.463 41.86L614.671 40.0233C609.493 42.2553 604.929 45.3414 600.993 49.2778L602.407 50.692ZM615.463 41.86L616.27 43.6902C621.044 41.5862 626.102 40.532 631.463 40.532V38.532V36.532C625.56 36.532 619.951 37.6965 614.656 40.0298L615.463 41.86ZM631.463 38.532V40.532C634.528 40.532 637.434 39.9735 640.164 38.844L639.399 36.996L638.634 35.1479C636.414 36.0665 634.03 36.532 631.463 36.532V38.532ZM639.399 36.996L640.194 38.8311C642.973 37.6268 645.405 35.9945 647.469 33.9302L646.055 32.516L644.641 31.1018C642.95 32.7921 640.945 34.1465 638.604 35.1609L639.399 36.996ZM646.055 32.516L647.469 33.9302C649.534 31.8653 651.131 29.4681 652.255 26.7527L650.407 25.988L648.559 25.2233C647.635 27.4572 646.331 29.412 644.641 31.1018L646.055 32.516ZM650.407 25.988L652.242 26.7832C653.461 23.9698 654.071 21.0109 654.071 17.924H652.071H650.071C650.071 20.469 649.571 22.8862 648.572 25.1928L650.407 25.988ZM652.071 17.924H654.071V4.22797H652.071H650.071V17.924H652.071ZM610.855 17.924H608.855C608.855 22.124 609.934 26.0243 612.088 29.5836L613.799 28.548L615.51 27.5124C613.739 24.5863 612.855 21.4039 612.855 17.924H610.855ZM613.799 28.548L612.088 29.5836C614.243 33.1435 617.203 35.9125 620.933 37.8708L621.863 36.1L622.793 34.3292C619.696 32.7035 617.281 30.4378 615.51 27.5124L613.799 28.548ZM621.863 36.1L621.398 34.1548C617.34 35.1251 613.61 36.4543 610.217 38.1511L611.111 39.94L612.005 41.7288C615.097 40.183 618.535 38.9522 622.328 38.0451L621.863 36.1ZM611.111 39.94L610.217 38.1511C606.803 39.8578 603.545 42.0933 600.441 44.8428L601.767 46.34L603.093 47.8372C605.962 45.296 608.934 43.2648 612.005 41.7288L611.111 39.94ZM601.767 46.34L603.196 44.9404C599.243 40.9055 596.464 36.8101 594.789 32.6631L592.935 33.412L591.081 34.1609C592.99 38.8885 596.099 43.4118 600.338 47.7395L601.767 46.34ZM592.935 33.412L594.802 32.694C593.201 28.5332 592.375 23.623 592.375 17.924H590.375H588.375C588.375 24.0009 589.255 29.4161 591.068 34.1299L592.935 33.412ZM590.375 17.924H592.375V4.22797H590.375H588.375V17.924H590.375ZM590.375 4.22797V6.22797H610.855V4.22797V2.22797H590.375V4.22797ZM610.855 4.22797H608.855V17.924H610.855H612.855V4.22797H610.855Z" fill="url(#paint1_linear_4_4)" mask="url(#path-1-outside-1_4_4)"/>
</g>
<defs>
<filter id="filter0_ddii_4_4" x="-2.47955e-05" y="-2.47955e-05" width="684.779" height="113.416" filterUnits="userSpaceOnUse" color-interpolation-filters="sRGB">
<feFlood flood-opacity="0" result="BackgroundImageFix"/>
<feColorMatrix in="SourceAlpha" type="matrix" values="0 0 0 0 0 0 0 0 0 0 0 0 0 0 0 0 0 0 127 0" result="hardAlpha"/>
<feOffset dy="4"/>
<feComposite in2="hardAlpha" operator="out"/>
<feColorMatrix type="matrix" values="0 0 0 0 0.382869 0 0 0 0 0.382869 0 0 0 0 0.382869 0 0 0 0.25 0"/>
<feBlend mode="normal" in2="BackgroundImageFix" result="effect1_dropShadow_4_4"/>
<feColorMatrix in="SourceAlpha" type="matrix" values="0 0 0 0 0 0 0 0 0 0 0 0 0 0 0 0 0 0 127 0" result="hardAlpha"/>
<feOffset dy="8"/>
<feGaussianBlur stdDeviation="5.05"/>
<feComposite in2="hardAlpha" operator="out"/>
<feColorMatrix type="matrix" values="0 0 0 0 0 0 0 0 0 0 0 0 0 0 0 0 0 0 0.25 0"/>
<feBlend mode="normal" in2="effect1_dropShadow_4_4" result="effect2_dropShadow_4_4"/>
<feBlend mode="normal" in="SourceGraphic" in2="effect2_dropShadow_4_4" result="shape"/>
<feColorMatrix in="SourceAlpha" type="matrix" values="0 0 0 0 0 0 0 0 0 0 0 0 0 0 0 0 0 0 127 0" result="hardAlpha"/>
<feOffset dx="-4" dy="4"/>
<feGaussianBlur stdDeviation="2"/>
<feComposite in2="hardAlpha" operator="arithmetic" k2="-1" k3="1"/>
<feColorMatrix type="matrix" values="0 0 0 0 0 0 0 0 0 0 0 0 0 0 0 0 0 0 0.25 0"/>
<feBlend mode="normal" in2="shape" result="effect3_innerShadow_4_4"/>
<feColorMatrix in="SourceAlpha" type="matrix" values="0 0 0 0 0 0 0 0 0 0 0 0 0 0 0 0 0 0 127 0" result="hardAlpha"/>
<feOffset dy="-1"/>
<feGaussianBlur stdDeviation="4.6"/>
<feComposite in2="hardAlpha" operator="arithmetic" k2="-1" k3="1"/>
<feColorMatrix type="matrix" values="0 0 0 0 0 0 0 0 0 0 0 0 0 0 0 0 0 0 0.25 0"/>
<feBlend mode="normal" in2="effect3_innerShadow_4_4" result="effect4_innerShadow_4_4"/>
</filter>
<linearGradient id="paint0_linear_4_4" x1="342.656" y1="-2.68402" x2="342.656" y2="125.316" gradientUnits="userSpaceOnUse">
<stop stop-color="#B3B3B3"/>
<stop offset="0.122596" stop-color="#9C9C9C"/>
<stop offset="0.259615" stop-color="white"/>
<stop offset="0.379808" stop-color="#CCCACA"/>
<stop offset="0.576923" stop-color="#C8C7C7"/>
<stop offset="0.899038"/>
</linearGradient>
<linearGradient id="paint1_linear_4_4" x1="342.656" y1="-2.68402" x2="342.656" y2="125.316" gradientUnits="userSpaceOnUse">
<stop stop-color="white"/>
<stop offset="1" stop-color="#666666"/>
</linearGradient>
</defs>
</svg>
