<svg width="663" height="92" viewBox="0 0 663 92" fill="none" xmlns="http://www.w3.org/2000/svg">
<mask id="path-1-outside-1_5_9" maskUnits="userSpaceOnUse" x="-0.94397" y="-0.783997" width="664" height="92" fill="black">
<rect fill="white" x="-0.94397" y="-0.783997" width="664" height="92"/>
<path d="M35.304 1.128C40.936 1.128 46.2267 2.23733 51.176 4.456C56.2107 6.58933 60.5627 9.53333 64.232 13.288C67.9867 16.9573 70.9307 21.3093 73.064 26.344C75.2827 31.2933 76.392 36.584 76.392 42.216V49.128C76.392 54.76 75.2827 60.0933 73.064 65.128C70.9307 70.0773 67.9867 74.4293 64.232 78.184C60.5627 81.8533 56.2107 84.7973 51.176 87.016C46.2267 89.1493 40.936 90.216 35.304 90.216H1.00003V1.128H35.304ZM55.912 42.216C55.912 39.4 55.3574 36.7547 54.248 34.28C53.224 31.72 51.7734 29.544 49.896 27.752C48.0187 25.8747 45.8 24.424 43.24 23.4C40.7654 22.2907 38.12 21.736 35.304 21.736H21.608V69.736H35.304C38.12 69.736 40.7654 69.224 43.24 68.2C45.8 67.0907 48.0187 65.5973 49.896 63.72C51.7734 61.8427 53.224 59.6667 54.248 57.192C55.3574 54.632 55.912 51.944 55.912 49.128V42.216ZM87.894 42.216C87.894 36.584 88.9607 31.2933 91.094 26.344C93.3127 21.3093 96.2567 16.9573 99.926 13.288C103.681 9.53333 108.033 6.58933 112.982 4.456C118.017 2.23733 123.35 1.128 128.982 1.128H163.286V21.736H128.982C124.63 21.736 120.662 22.9733 117.078 25.448C113.579 27.9227 111.105 31.2507 109.654 35.432H163.286V55.912H109.654C111.105 60.0933 113.579 63.464 117.078 66.024C120.662 68.4987 124.63 69.736 128.982 69.736H163.286V90.216H128.982C123.35 90.216 118.017 89.1493 112.982 87.016C108.033 84.7973 103.681 81.8533 99.926 78.184C96.2567 74.4293 93.3127 70.0773 91.094 65.128C88.9607 60.0933 87.894 54.76 87.894 49.128V42.216ZM237.243 90.216V76.52H196.027V90.216H175.547V42.216C175.547 36.4987 176.614 31.1653 178.747 26.216C180.966 21.1813 183.91 16.8293 187.579 13.16C191.334 9.40533 195.686 6.46133 200.635 4.328C205.67 2.10933 211.003 1 216.635 1C222.352 1 227.686 2.10933 232.635 4.328C237.67 6.46133 242.022 9.40533 245.691 13.16C249.446 16.8293 252.39 21.1813 254.523 26.216C256.742 31.1653 257.851 36.4987 257.851 42.216V90.216H237.243ZM237.243 55.912V42.216C237.243 39.4 236.688 36.7547 235.579 34.28C234.555 31.72 233.104 29.5013 231.227 27.624C229.35 25.7467 227.131 24.296 224.571 23.272C222.096 22.1627 219.451 21.608 216.635 21.608C213.819 21.608 211.131 22.1627 208.571 23.272C206.096 24.296 203.92 25.7467 202.043 27.624C200.166 29.5013 198.672 31.72 197.563 34.28C196.539 36.7547 196.027 39.4 196.027 42.216V55.912H237.243ZM303.879 1.128C309.511 1.128 314.802 2.23733 319.751 4.456C324.786 6.58933 329.138 9.53333 332.807 13.288C336.562 16.9573 339.506 21.3093 341.639 26.344C343.858 31.2933 344.967 36.584 344.967 42.216V49.128C344.967 54.76 343.858 60.0933 341.639 65.128C339.506 70.0773 336.562 74.4293 332.807 78.184C329.138 81.8533 324.786 84.7973 319.751 87.016C314.802 89.1493 309.511 90.216 303.879 90.216H269.575V1.128H303.879ZM324.487 42.216C324.487 39.4 323.932 36.7547 322.823 34.28C321.799 31.72 320.348 29.544 318.471 27.752C316.594 25.8747 314.375 24.424 311.815 23.4C309.34 22.2907 306.695 21.736 303.879 21.736H290.183V69.736H303.879C306.695 69.736 309.34 69.224 311.815 68.2C314.375 67.0907 316.594 65.5973 318.471 63.72C320.348 61.8427 321.799 59.6667 322.823 57.192C323.932 54.632 324.487 51.944 324.487 49.128V42.216ZM452.469 1H473.077V90.216H424.949H411.253C403.658 90.216 396.533 88.808 389.877 85.992C383.221 83.0907 377.418 79.1653 372.469 74.216C367.52 69.1813 363.594 63.336 360.693 56.68C357.877 50.024 356.469 42.8987 356.469 35.304V1H376.949V35.304C376.949 39.4853 377.632 43.4533 378.997 47.208C380.448 50.8773 382.368 54.2053 384.757 57.192C387.232 60.1787 390.133 62.696 393.461 64.744C396.874 66.792 400.544 68.2 404.469 68.968V1H424.949V69.608H452.469V1ZM546.943 90.216V76.52H505.727V90.216H485.247V42.216C485.247 36.4987 486.314 31.1653 488.447 26.216C490.666 21.1813 493.61 16.8293 497.279 13.16C501.034 9.40533 505.386 6.46133 510.335 4.328C515.37 2.10933 520.703 1 526.335 1C532.052 1 537.386 2.10933 542.335 4.328C547.37 6.46133 551.722 9.40533 555.391 13.16C559.146 16.8293 562.09 21.1813 564.223 26.216C566.442 31.1653 567.551 36.4987 567.551 42.216V90.216H546.943ZM546.943 55.912V42.216C546.943 39.4 546.388 36.7547 545.279 34.28C544.255 31.72 542.804 29.5013 540.927 27.624C539.05 25.7467 536.831 24.296 534.271 23.272C531.796 22.1627 529.151 21.608 526.335 21.608C523.519 21.608 520.831 22.1627 518.271 23.272C515.796 24.296 513.62 25.7467 511.743 27.624C509.866 29.5013 508.372 31.72 507.263 34.28C506.239 36.7547 505.727 39.4 505.727 42.216V55.912H546.943ZM629.963 58.344C633.888 57.4907 637.472 56.2533 640.715 54.632C643.958 52.9253 647.072 50.7493 650.059 48.104C654.155 52.2853 657.099 56.5947 658.891 61.032C660.683 65.4693 661.579 70.632 661.579 76.52V90.216H640.971V76.52C640.971 72.68 639.99 69.1387 638.027 65.896C636.064 62.6533 633.376 60.136 629.963 58.344ZM640.971 1.128H661.579V14.824C661.579 20.456 660.47 25.7893 658.251 30.824C656.118 35.7733 653.174 40.1253 649.419 43.88C645.75 47.5493 641.398 50.4933 636.363 52.712C631.414 54.8453 626.08 55.912 620.363 55.912C617.547 55.912 614.859 56.4667 612.299 57.576C609.824 58.6 607.648 60.0507 605.771 61.928C603.894 63.8053 602.4 66.024 601.291 68.584C600.267 71.0587 599.755 73.704 599.755 76.52V90.216H579.275V76.52C579.275 70.888 580.342 65.5973 582.475 60.648C584.694 55.6133 587.638 51.2613 591.307 47.592C595.062 43.8373 599.414 40.8933 604.363 38.76C609.398 36.5413 614.731 35.432 620.363 35.432C623.179 35.432 625.824 34.92 628.299 33.896C630.859 32.7867 633.078 31.2933 634.955 29.416C636.832 27.5387 638.283 25.3627 639.307 22.888C640.416 20.328 640.971 17.64 640.971 14.824V1.128ZM599.755 14.824C599.755 18.664 600.736 22.2053 602.699 25.448C604.662 28.6907 607.35 31.208 610.763 33C606.838 33.9387 603.254 35.2187 600.011 36.84C596.768 38.4613 593.654 40.5947 590.667 43.24C586.571 39.0587 583.627 34.7493 581.835 30.312C580.128 25.8747 579.275 20.712 579.275 14.824V1.128H599.755V14.824Z"/>
</mask>
<path d="M35.304 1.128C40.936 1.128 46.2267 2.23733 51.176 4.456C56.2107 6.58933 60.5627 9.53333 64.232 13.288C67.9867 16.9573 70.9307 21.3093 73.064 26.344C75.2827 31.2933 76.392 36.584 76.392 42.216V49.128C76.392 54.76 75.2827 60.0933 73.064 65.128C70.9307 70.0773 67.9867 74.4293 64.232 78.184C60.5627 81.8533 56.2107 84.7973 51.176 87.016C46.2267 89.1493 40.936 90.216 35.304 90.216H1.00003V1.128H35.304ZM55.912 42.216C55.912 39.4 55.3574 36.7547 54.248 34.28C53.224 31.72 51.7734 29.544 49.896 27.752C48.0187 25.8747 45.8 24.424 43.24 23.4C40.7654 22.2907 38.12 21.736 35.304 21.736H21.608V69.736H35.304C38.12 69.736 40.7654 69.224 43.24 68.2C45.8 67.0907 48.0187 65.5973 49.896 63.72C51.7734 61.8427 53.224 59.6667 54.248 57.192C55.3574 54.632 55.912 51.944 55.912 49.128V42.216ZM87.894 42.216C87.894 36.584 88.9607 31.2933 91.094 26.344C93.3127 21.3093 96.2567 16.9573 99.926 13.288C103.681 9.53333 108.033 6.58933 112.982 4.456C118.017 2.23733 123.35 1.128 128.982 1.128H163.286V21.736H128.982C124.63 21.736 120.662 22.9733 117.078 25.448C113.579 27.9227 111.105 31.2507 109.654 35.432H163.286V55.912H109.654C111.105 60.0933 113.579 63.464 117.078 66.024C120.662 68.4987 124.63 69.736 128.982 69.736H163.286V90.216H128.982C123.35 90.216 118.017 89.1493 112.982 87.016C108.033 84.7973 103.681 81.8533 99.926 78.184C96.2567 74.4293 93.3127 70.0773 91.094 65.128C88.9607 60.0933 87.894 54.76 87.894 49.128V42.216ZM237.243 90.216V76.52H196.027V90.216H175.547V42.216C175.547 36.4987 176.614 31.1653 178.747 26.216C180.966 21.1813 183.91 16.8293 187.579 13.16C191.334 9.40533 195.686 6.46133 200.635 4.328C205.67 2.10933 211.003 1 216.635 1C222.352 1 227.686 2.10933 232.635 4.328C237.67 6.46133 242.022 9.40533 245.691 13.16C249.446 16.8293 252.39 21.1813 254.523 26.216C256.742 31.1653 257.851 36.4987 257.851 42.216V90.216H237.243ZM237.243 55.912V42.216C237.243 39.4 236.688 36.7547 235.579 34.28C234.555 31.72 233.104 29.5013 231.227 27.624C229.35 25.7467 227.131 24.296 224.571 23.272C222.096 22.1627 219.451 21.608 216.635 21.608C213.819 21.608 211.131 22.1627 208.571 23.272C206.096 24.296 203.92 25.7467 202.043 27.624C200.166 29.5013 198.672 31.72 197.563 34.28C196.539 36.7547 196.027 39.4 196.027 42.216V55.912H237.243ZM303.879 1.128C309.511 1.128 314.802 2.23733 319.751 4.456C324.786 6.58933 329.138 9.53333 332.807 13.288C336.562 16.9573 339.506 21.3093 341.639 26.344C343.858 31.2933 344.967 36.584 344.967 42.216V49.128C344.967 54.76 343.858 60.0933 341.639 65.128C339.506 70.0773 336.562 74.4293 332.807 78.184C329.138 81.8533 324.786 84.7973 319.751 87.016C314.802 89.1493 309.511 90.216 303.879 90.216H269.575V1.128H303.879ZM324.487 42.216C324.487 39.4 323.932 36.7547 322.823 34.28C321.799 31.72 320.348 29.544 318.471 27.752C316.594 25.8747 314.375 24.424 311.815 23.4C309.34 22.2907 306.695 21.736 303.879 21.736H290.183V69.736H303.879C306.695 69.736 309.34 69.224 311.815 68.2C314.375 67.0907 316.594 65.5973 318.471 63.72C320.348 61.8427 321.799 59.6667 322.823 57.192C323.932 54.632 324.487 51.944 324.487 49.128V42.216ZM452.469 1H473.077V90.216H424.949H411.253C403.658 90.216 396.533 88.808 389.877 85.992C383.221 83.0907 377.418 79.1653 372.469 74.216C367.52 69.1813 363.594 63.336 360.693 56.68C357.877 50.024 356.469 42.8987 356.469 35.304V1H376.949V35.304C376.949 39.4853 377.632 43.4533 378.997 47.208C380.448 50.8773 382.368 54.2053 384.757 57.192C387.232 60.1787 390.133 62.696 393.461 64.744C396.874 66.792 400.544 68.2 404.469 68.968V1H424.949V69.608H452.469V1ZM546.943 90.216V76.52H505.727V90.216H485.247V42.216C485.247 36.4987 486.314 31.1653 488.447 26.216C490.666 21.1813 493.61 16.8293 497.279 13.16C501.034 9.40533 505.386 6.46133 510.335 4.328C515.37 2.10933 520.703 1 526.335 1C532.052 1 537.386 2.10933 542.335 4.328C547.37 6.46133 551.722 9.40533 555.391 13.16C559.146 16.8293 562.09 21.1813 564.223 26.216C566.442 31.1653 567.551 36.4987 567.551 42.216V90.216H546.943ZM546.943 55.912V42.216C546.943 39.4 546.388 36.7547 545.279 34.28C544.255 31.72 542.804 29.5013 540.927 27.624C539.05 25.7467 536.831 24.296 534.271 23.272C531.796 22.1627 529.151 21.608 526.335 21.608C523.519 21.608 520.831 22.1627 518.271 23.272C515.796 24.296 513.62 25.7467 511.743 27.624C509.866 29.5013 508.372 31.72 507.263 34.28C506.239 36.7547 505.727 39.4 505.727 42.216V55.912H546.943ZM629.963 58.344C633.888 57.4907 637.472 56.2533 640.715 54.632C643.958 52.9253 647.072 50.7493 650.059 48.104C654.155 52.2853 657.099 56.5947 658.891 61.032C660.683 65.4693 661.579 70.632 661.579 76.52V90.216H640.971V76.52C640.971 72.68 639.99 69.1387 638.027 65.896C636.064 62.6533 633.376 60.136 629.963 58.344ZM640.971 1.128H661.579V14.824C661.579 20.456 660.47 25.7893 658.251 30.824C656.118 35.7733 653.174 40.1253 649.419 43.88C645.75 47.5493 641.398 50.4933 636.363 52.712C631.414 54.8453 626.08 55.912 620.363 55.912C617.547 55.912 614.859 56.4667 612.299 57.576C609.824 58.6 607.648 60.0507 605.771 61.928C603.894 63.8053 602.4 66.024 601.291 68.584C600.267 71.0587 599.755 73.704 599.755 76.52V90.216H579.275V76.52C579.275 70.888 580.342 65.5973 582.475 60.648C584.694 55.6133 587.638 51.2613 591.307 47.592C595.062 43.8373 599.414 40.8933 604.363 38.76C609.398 36.5413 614.731 35.432 620.363 35.432C623.179 35.432 625.824 34.92 628.299 33.896C630.859 32.7867 633.078 31.2933 634.955 29.416C636.832 27.5387 638.283 25.3627 639.307 22.888C640.416 20.328 640.971 17.64 640.971 14.824V1.128ZM599.755 14.824C599.755 18.664 600.736 22.2053 602.699 25.448C604.662 28.6907 607.35 31.208 610.763 33C606.838 33.9387 603.254 35.2187 600.011 36.84C596.768 38.4613 593.654 40.5947 590.667 43.24C586.571 39.0587 583.627 34.7493 581.835 30.312C580.128 25.8747 579.275 20.712 579.275 14.824V1.128H599.755V14.824Z" fill="white"/>
<path d="M51.176 4.456L50.767 5.36851L50.7764 5.37273L50.7859 5.37675L51.176 4.456ZM64.232 13.288L63.5168 13.9869L63.5249 13.9952L63.5331 14.0032L64.232 13.288ZM73.064 26.344L72.1433 26.7341L72.1473 26.7436L72.1515 26.7531L73.064 26.344ZM73.064 65.128L72.1489 64.7247L72.1457 64.7322L73.064 65.128ZM64.232 78.184L63.5249 77.4769V77.4769L64.232 78.184ZM51.176 87.016L51.5719 87.9344L51.5793 87.9311L51.176 87.016ZM1.00003 90.216H3.05176e-05V91.216H1.00003V90.216ZM1.00003 1.128V0.127998H3.05176e-05V1.128H1.00003ZM54.248 34.28L53.3196 34.6514L53.3272 34.6704L53.3355 34.6891L54.248 34.28ZM49.896 27.752L49.1889 28.4591L49.1971 28.4673L49.2056 28.4754L49.896 27.752ZM43.24 23.4L42.831 24.3125L42.8496 24.3209L42.8686 24.3285L43.24 23.4ZM21.608 21.736V20.736H20.608V21.736H21.608ZM21.608 69.736H20.608V70.736H21.608V69.736ZM43.24 68.2L43.6224 69.124L43.63 69.1208L43.6376 69.1176L43.24 68.2ZM49.896 63.72L50.6031 64.4271V64.4271L49.896 63.72ZM54.248 57.192L53.3305 56.7944L53.3272 56.802L53.324 56.8097L54.248 57.192ZM35.304 1.128V2.128C40.8006 2.128 45.9513 3.20974 50.767 5.36851L51.176 4.456L51.5851 3.5435C46.5021 1.26492 41.0715 0.127998 35.304 0.127998V1.128ZM51.176 4.456L50.7859 5.37675C55.7038 7.46059 59.9439 10.3309 63.5168 13.9869L64.232 13.288L64.9472 12.5891C61.1815 8.73573 56.7177 5.71807 51.5662 3.53525L51.176 4.456ZM64.232 13.288L63.5331 14.0032C67.1891 17.5761 70.0594 21.8163 72.1433 26.7341L73.064 26.344L73.9848 25.9538C71.802 20.8024 68.7843 16.3386 64.931 12.5728L64.232 13.288ZM73.064 26.344L72.1515 26.7531C74.3103 31.5688 75.392 36.7195 75.392 42.216H76.392H77.392C77.392 36.4485 76.2551 31.0179 73.9765 25.9349L73.064 26.344ZM76.392 42.216H75.392V49.128H76.392H77.392V42.216H76.392ZM76.392 49.128H75.392C75.392 54.6245 74.3103 59.8202 72.1489 64.7247L73.064 65.128L73.9791 65.5313C76.2551 60.3665 77.392 54.8955 77.392 49.128H76.392ZM73.064 65.128L72.1457 64.7322C70.0617 69.5671 67.1888 73.8131 63.5249 77.4769L64.232 78.184L64.9391 78.8911C68.7846 75.0456 71.7997 70.5876 73.9824 65.5238L73.064 65.128ZM64.232 78.184L63.5249 77.4769C59.9483 81.0535 55.7011 83.9291 50.7728 86.1009L51.176 87.016L51.5793 87.9311C56.7203 85.6655 61.1771 82.6532 64.9391 78.8911L64.232 78.184ZM51.176 87.016L50.7802 86.0977C45.9615 88.1747 40.8062 89.216 35.304 89.216V90.216V91.216C41.0659 91.216 46.4919 90.124 51.5719 87.9343L51.176 87.016ZM35.304 90.216V89.216H1.00003V90.216V91.216H35.304V90.216ZM1.00003 90.216H2.00003V1.128H1.00003H3.05176e-05V90.216H1.00003ZM1.00003 1.128V2.128H35.304V1.128V0.127998H1.00003V1.128ZM55.912 42.216H56.912C56.912 39.2645 56.3298 36.4792 55.1605 33.8709L54.248 34.28L53.3355 34.6891C54.385 37.0301 54.912 39.5355 54.912 42.216H55.912ZM54.248 34.28L55.1765 33.9086C54.1027 31.2241 52.5739 28.9257 50.5865 27.0286L49.896 27.752L49.2056 28.4754C50.9729 30.1623 52.3454 32.216 53.3196 34.6514L54.248 34.28ZM49.896 27.752L50.6031 27.0449C48.6263 25.0681 46.2922 23.5438 43.6114 22.4715L43.24 23.4L42.8686 24.3285C45.3078 25.3042 47.4111 26.6812 49.1889 28.4591L49.896 27.752ZM43.24 23.4L43.6491 22.4875C41.0408 21.3183 38.2555 20.736 35.304 20.736V21.736V22.736C37.9846 22.736 40.4899 23.2631 42.831 24.3125L43.24 23.4ZM35.304 21.736V20.736H21.608V21.736V22.736H35.304V21.736ZM21.608 21.736H20.608V69.736H21.608H22.608V21.736H21.608ZM21.608 69.736V70.736H35.304V69.736V68.736H21.608V69.736ZM35.304 69.736V70.736C38.2444 70.736 41.0203 70.2007 43.6224 69.124L43.24 68.2L42.8577 67.276C40.5104 68.2473 37.9957 68.736 35.304 68.736V69.736ZM43.24 68.2L43.6376 69.1176C46.3072 67.9608 48.6323 66.3979 50.6031 64.4271L49.896 63.72L49.1889 63.0129C47.4051 64.7967 45.2929 66.2206 42.8424 67.2824L43.24 68.2ZM49.896 63.72L50.6031 64.4271C52.5742 62.456 54.0982 60.1694 55.172 57.5744L54.248 57.192L53.324 56.8097C52.3498 59.164 50.9725 61.2293 49.1889 63.0129L49.896 63.72ZM54.248 57.192L55.1656 57.5896C56.3298 54.9029 56.912 52.0795 56.912 49.128H55.912H54.912C54.912 51.8085 54.3849 54.3611 53.3305 56.7944L54.248 57.192ZM55.912 49.128H56.912V42.216H55.912H54.912V49.128H55.912ZM91.094 26.344L90.1789 25.9407L90.1757 25.9482L91.094 26.344ZM99.926 13.288L100.633 13.9951V13.9951L99.926 13.288ZM112.982 4.456L113.378 5.37436L113.385 5.37109L112.982 4.456ZM163.286 1.128H164.286V0.127998H163.286V1.128ZM163.286 21.736V22.736H164.286V21.736H163.286ZM117.078 25.448L116.51 24.625L116.501 24.6316L117.078 25.448ZM109.654 35.432L108.709 35.1042L108.249 36.432H109.654V35.432ZM163.286 35.432H164.286V34.432H163.286V35.432ZM163.286 55.912V56.912H164.286V55.912H163.286ZM109.654 55.912V54.912H108.249L108.709 56.2398L109.654 55.912ZM117.078 66.024L116.488 66.831L116.499 66.8391L116.51 66.8469L117.078 66.024ZM163.286 69.736H164.286V68.736H163.286V69.736ZM163.286 90.216V91.216H164.286V90.216H163.286ZM112.982 87.016L112.573 87.9285L112.582 87.9327L112.592 87.9368L112.982 87.016ZM99.926 78.184L99.2108 78.8829L99.2189 78.8912L99.2271 78.8992L99.926 78.184ZM91.094 65.128L90.1733 65.5182L90.1773 65.5276L90.1815 65.5371L91.094 65.128ZM87.894 42.216H88.894C88.894 36.7139 89.9353 31.5585 92.0124 26.7398L91.094 26.344L90.1757 25.9482C87.9861 31.0281 86.894 36.4541 86.894 42.216H87.894ZM91.094 26.344L92.0091 26.7473C94.1809 21.819 97.0565 17.5717 100.633 13.9951L99.926 13.288L99.2189 12.5809C95.4569 16.3429 92.4445 20.7997 90.1789 25.9407L91.094 26.344ZM99.926 13.288L100.633 13.9951C104.297 10.3313 108.543 7.45834 113.378 5.37433L112.982 4.456L112.586 3.53767C107.522 5.72032 103.064 8.7354 99.2189 12.5809L99.926 13.288ZM112.982 4.456L113.385 5.37109C118.29 3.20975 123.486 2.128 128.982 2.128V1.128V0.127998C123.215 0.127998 117.744 1.26491 112.579 3.54092L112.982 4.456ZM128.982 1.128V2.128H163.286V1.128V0.127998H128.982V1.128ZM163.286 1.128H162.286V21.736H163.286H164.286V1.128H163.286ZM163.286 21.736V20.736H128.982V21.736V22.736H163.286V21.736ZM128.982 21.736V20.736C124.427 20.736 120.261 22.0352 116.51 24.6251L117.078 25.448L117.646 26.2709C121.063 23.9115 124.833 22.736 128.982 22.736V21.736ZM117.078 25.448L116.501 24.6316C112.826 27.231 110.226 30.7326 108.709 35.1042L109.654 35.432L110.599 35.7598C111.983 31.7688 114.333 28.6144 117.656 26.2644L117.078 25.448ZM109.654 35.432V36.432H163.286V35.432V34.432H109.654V35.432ZM163.286 35.432H162.286V55.912H163.286H164.286V35.432H163.286ZM163.286 55.912V54.912H109.654V55.912V56.912H163.286V55.912ZM109.654 55.912L108.709 56.2398C110.225 60.6089 112.821 64.1483 116.488 66.831L117.078 66.024L117.669 65.217C114.338 62.7797 111.984 59.5778 110.599 55.5842L109.654 55.912ZM117.078 66.024L116.51 66.8469C120.261 69.4368 124.427 70.736 128.982 70.736V69.736V68.736C124.833 68.736 121.063 67.5605 117.646 65.2011L117.078 66.024ZM128.982 69.736V70.736H163.286V69.736V68.736H128.982V69.736ZM163.286 69.736H162.286V90.216H163.286H164.286V69.736H163.286ZM163.286 90.216V89.216H128.982V90.216V91.216H163.286V90.216ZM128.982 90.216V89.216C123.48 89.216 118.28 88.1747 113.372 86.0953L112.982 87.016L112.592 87.9368C117.754 90.124 123.22 91.216 128.982 91.216V90.216ZM112.982 87.016L113.391 86.1035C108.546 83.9314 104.293 81.0531 100.625 77.4688L99.926 78.184L99.2271 78.8992C103.069 82.6536 107.52 85.6633 112.573 87.9285L112.982 87.016ZM99.926 78.184L100.641 77.4851C97.0569 73.8174 94.1786 69.5644 92.0065 64.7189L91.094 65.128L90.1815 65.5371C92.4468 70.5903 95.4565 75.0412 99.2108 78.8829L99.926 78.184ZM91.094 65.128L92.0148 64.7379C89.9353 59.8303 88.894 54.6301 88.894 49.128H87.894H86.894C86.894 54.8899 87.9861 60.3563 90.1733 65.5182L91.094 65.128ZM87.894 49.128H88.894V42.216H87.894H86.894V49.128H87.894ZM237.243 90.216H236.243V91.216H237.243V90.216ZM237.243 76.52H238.243V75.52H237.243V76.52ZM196.027 76.52V75.52H195.027V76.52H196.027ZM196.027 90.216V91.216H197.027V90.216H196.027ZM175.547 90.216H174.547V91.216H175.547V90.216ZM178.747 26.216L177.832 25.8127L177.829 25.8202L178.747 26.216ZM187.579 13.16L186.872 12.4529V12.4529L187.579 13.16ZM200.635 4.328L201.031 5.24636L201.038 5.24309L200.635 4.328ZM232.635 4.328L232.226 5.24051L232.235 5.24473L232.245 5.24876L232.635 4.328ZM245.691 13.16L244.976 13.8589L244.984 13.8671L244.992 13.8752L245.691 13.16ZM254.523 26.216L253.602 26.6062L253.606 26.6157L253.611 26.6251L254.523 26.216ZM257.851 90.216V91.216H258.851V90.216H257.851ZM237.243 55.912V56.912H238.243V55.912H237.243ZM235.579 34.28L234.651 34.6514L234.658 34.6704L234.667 34.6891L235.579 34.28ZM231.227 27.624L230.52 28.3311V28.3311L231.227 27.624ZM224.571 23.272L224.162 24.1845L224.181 24.1929L224.2 24.2005L224.571 23.272ZM208.571 23.272L208.953 24.196L208.961 24.1929L208.969 24.1896L208.571 23.272ZM197.563 34.28L196.645 33.8824L196.642 33.89L196.639 33.8977L197.563 34.28ZM196.027 55.912H195.027V56.912H196.027V55.912ZM237.243 90.216H238.243V76.52H237.243H236.243V90.216H237.243ZM237.243 76.52V75.52H196.027V76.52V77.52H237.243V76.52ZM196.027 76.52H195.027V90.216H196.027H197.027V76.52H196.027ZM196.027 90.216V89.216H175.547V90.216V91.216H196.027V90.216ZM175.547 90.216H176.547V42.216H175.547H174.547V90.216H175.547ZM175.547 42.216H176.547C176.547 36.6264 177.589 31.4287 179.665 26.6118L178.747 26.216L177.829 25.8202C175.638 30.902 174.547 36.371 174.547 42.216H175.547ZM178.747 26.216L179.662 26.6193C181.834 21.691 184.71 17.4437 188.286 13.8671L187.579 13.16L186.872 12.4529C183.11 16.2149 180.097 20.6717 177.832 25.8127L178.747 26.216ZM187.579 13.16L188.286 13.8671C191.95 10.2033 196.196 7.33035 201.031 5.24633L200.635 4.328L200.239 3.40968C195.175 5.59232 190.717 8.6074 186.872 12.4529L187.579 13.16ZM200.635 4.328L201.038 5.24309C205.943 3.08176 211.139 2 216.635 2V1V0C210.868 0 205.397 1.13691 200.232 3.41292L200.635 4.328ZM216.635 1V2C222.219 2 227.412 3.08262 232.226 5.24051L232.635 4.328L233.044 3.4155C227.959 1.13605 222.486 0 216.635 0V1ZM232.635 4.328L232.245 5.24876C237.163 7.3326 241.403 10.2029 244.976 13.8589L245.691 13.16L246.406 12.4611C242.64 8.60773 238.177 5.59007 233.025 3.40725L232.635 4.328ZM245.691 13.16L244.992 13.8752C248.648 17.4481 251.518 21.6883 253.602 26.6062L254.523 26.216L255.444 25.8259C253.261 20.6744 250.243 16.2106 246.39 12.4448L245.691 13.16ZM254.523 26.216L253.611 26.6251C255.768 31.4388 256.851 36.6319 256.851 42.216H257.851H258.851C258.851 36.3655 257.715 30.8919 255.436 25.8069L254.523 26.216ZM257.851 42.216H256.851V90.216H257.851H258.851V42.216H257.851ZM257.851 90.216V89.216H237.243V90.216V91.216H257.851V90.216ZM237.243 55.912H238.243V42.216H237.243H236.243V55.912H237.243ZM237.243 42.216H238.243C238.243 39.2645 237.661 36.4792 236.492 33.8709L235.579 34.28L234.667 34.6891C235.716 37.0301 236.243 39.5355 236.243 42.216H237.243ZM235.579 34.28L236.508 33.9086C235.435 31.2278 233.911 28.8937 231.934 26.9169L231.227 27.624L230.52 28.3311C232.298 30.109 233.675 32.2122 234.651 34.6514L235.579 34.28ZM231.227 27.624L231.934 26.9169C229.957 24.9401 227.623 23.4158 224.942 22.3435L224.571 23.272L224.2 24.2005C226.639 25.1762 228.742 26.5532 230.52 28.3311L231.227 27.624ZM224.571 23.272L224.98 22.3595C222.372 21.1903 219.586 20.608 216.635 20.608V21.608V22.608C219.316 22.608 221.821 23.1351 224.162 24.1845L224.571 23.272ZM216.635 21.608V20.608C213.684 20.608 210.86 21.1902 208.173 22.3544L208.571 23.272L208.969 24.1896C211.402 23.1351 213.954 22.608 216.635 22.608V21.608ZM208.571 23.272L208.189 22.348C205.594 23.4218 203.307 24.9458 201.336 26.9169L202.043 27.624L202.75 28.3311C204.534 26.5475 206.599 25.1702 208.953 24.196L208.571 23.272ZM202.043 27.624L201.336 26.9169C199.365 28.8877 197.802 31.2129 196.645 33.8824L197.563 34.28L198.481 34.6776C199.542 32.2271 200.966 30.115 202.75 28.3311L202.043 27.624ZM197.563 34.28L196.639 33.8977C195.562 36.4997 195.027 39.2757 195.027 42.216H196.027H197.027C197.027 39.5243 197.516 37.0096 198.487 34.6624L197.563 34.28ZM196.027 42.216H195.027V55.912H196.027H197.027V42.216H196.027ZM196.027 55.912V56.912H237.243V55.912V54.912H196.027V55.912ZM319.751 4.456L319.342 5.36851L319.351 5.37273L319.361 5.37675L319.751 4.456ZM332.807 13.288L332.092 13.9869L332.1 13.9952L332.108 14.0032L332.807 13.288ZM341.639 26.344L340.718 26.7341L340.722 26.7436L340.727 26.7531L341.639 26.344ZM341.639 65.128L340.724 64.7247L340.721 64.7322L341.639 65.128ZM332.807 78.184L332.1 77.4769V77.4769L332.807 78.184ZM319.751 87.016L320.147 87.9344L320.154 87.9311L319.751 87.016ZM269.575 90.216H268.575V91.216H269.575V90.216ZM269.575 1.128V0.127998H268.575V1.128H269.575ZM322.823 34.28L321.895 34.6514L321.902 34.6704L321.911 34.6891L322.823 34.28ZM318.471 27.752L317.764 28.4591L317.772 28.4673L317.781 28.4754L318.471 27.752ZM311.815 23.4L311.406 24.3125L311.425 24.3209L311.444 24.3285L311.815 23.4ZM290.183 21.736V20.736H289.183V21.736H290.183ZM290.183 69.736H289.183V70.736H290.183V69.736ZM311.815 68.2L312.197 69.124L312.205 69.1208L312.213 69.1176L311.815 68.2ZM318.471 63.72L319.178 64.4271V64.4271L318.471 63.72ZM322.823 57.192L321.905 56.7944L321.902 56.802L321.899 56.8097L322.823 57.192ZM303.879 1.128V2.128C309.376 2.128 314.526 3.20974 319.342 5.36851L319.751 4.456L320.16 3.5435C315.077 1.26492 309.646 0.127998 303.879 0.127998V1.128ZM319.751 4.456L319.361 5.37675C324.279 7.46059 328.519 10.3309 332.092 13.9869L332.807 13.288L333.522 12.5891C329.756 8.73573 325.293 5.71807 320.141 3.53525L319.751 4.456ZM332.807 13.288L332.108 14.0032C335.764 17.5761 338.634 21.8163 340.718 26.7341L341.639 26.344L342.56 25.9538C340.377 20.8024 337.359 16.3386 333.506 12.5728L332.807 13.288ZM341.639 26.344L340.727 26.7531C342.885 31.5688 343.967 36.7195 343.967 42.216H344.967H345.967C345.967 36.4485 344.83 31.0179 342.552 25.9349L341.639 26.344ZM344.967 42.216H343.967V49.128H344.967H345.967V42.216H344.967ZM344.967 49.128H343.967C343.967 54.6245 342.885 59.8202 340.724 64.7247L341.639 65.128L342.554 65.5313C344.83 60.3665 345.967 54.8955 345.967 49.128H344.967ZM341.639 65.128L340.721 64.7322C338.637 69.5671 335.764 73.8131 332.1 77.4769L332.807 78.184L333.514 78.8911C337.36 75.0456 340.375 70.5876 342.557 65.5238L341.639 65.128ZM332.807 78.184L332.1 77.4769C328.523 81.0535 324.276 83.9291 319.348 86.1009L319.751 87.016L320.154 87.9311C325.295 85.6655 329.752 82.6532 333.514 78.8911L332.807 78.184ZM319.751 87.016L319.355 86.0977C314.536 88.1747 309.381 89.216 303.879 89.216V90.216V91.216C309.641 91.216 315.067 90.124 320.147 87.9343L319.751 87.016ZM303.879 90.216V89.216H269.575V90.216V91.216H303.879V90.216ZM269.575 90.216H270.575V1.128H269.575H268.575V90.216H269.575ZM269.575 1.128V2.128H303.879V1.128V0.127998H269.575V1.128ZM324.487 42.216H325.487C325.487 39.2645 324.905 36.4792 323.736 33.8709L322.823 34.28L321.911 34.6891C322.96 37.0301 323.487 39.5355 323.487 42.216H324.487ZM322.823 34.28L323.752 33.9086C322.678 31.2241 321.149 28.9257 319.162 27.0286L318.471 27.752L317.781 28.4754C319.548 30.1623 320.92 32.216 321.895 34.6514L322.823 34.28ZM318.471 27.752L319.178 27.0449C317.201 25.0681 314.867 23.5438 312.186 22.4715L311.815 23.4L311.444 24.3285C313.883 25.3042 315.986 26.6812 317.764 28.4591L318.471 27.752ZM311.815 23.4L312.224 22.4875C309.616 21.3183 306.831 20.736 303.879 20.736V21.736V22.736C306.56 22.736 309.065 23.2631 311.406 24.3125L311.815 23.4ZM303.879 21.736V20.736H290.183V21.736V22.736H303.879V21.736ZM290.183 21.736H289.183V69.736H290.183H291.183V21.736H290.183ZM290.183 69.736V70.736H303.879V69.736V68.736H290.183V69.736ZM303.879 69.736V70.736C306.819 70.736 309.595 70.2007 312.197 69.124L311.815 68.2L311.433 67.276C309.085 68.2473 306.571 68.736 303.879 68.736V69.736ZM311.815 68.2L312.213 69.1176C314.882 67.9608 317.207 66.3979 319.178 64.4271L318.471 63.72L317.764 63.0129C315.98 64.7967 313.868 66.2206 311.417 67.2824L311.815 68.2ZM318.471 63.72L319.178 64.4271C321.149 62.456 322.673 60.1694 323.747 57.5744L322.823 57.192L321.899 56.8097C320.925 59.164 319.547 61.2293 317.764 63.0129L318.471 63.72ZM322.823 57.192L323.741 57.5896C324.905 54.9029 325.487 52.0795 325.487 49.128H324.487H323.487C323.487 51.8085 322.96 54.3611 321.905 56.7944L322.823 57.192ZM324.487 49.128H325.487V42.216H324.487H323.487V49.128H324.487ZM452.469 1V0H451.469V1H452.469ZM473.077 1H474.077V0H473.077V1ZM473.077 90.216V91.216H474.077V90.216H473.077ZM389.877 85.992L389.477 86.9088L389.487 86.913L389.877 85.992ZM372.469 74.216L371.756 74.9171L371.762 74.9231L372.469 74.216ZM360.693 56.68L359.772 57.0697L359.776 57.0796L360.693 56.68ZM356.469 1V0H355.469V1H356.469ZM376.949 1H377.949V0H376.949V1ZM378.997 47.208L378.057 47.5497L378.062 47.5628L378.067 47.5757L378.997 47.208ZM384.757 57.192L383.976 57.8167L383.982 57.8234L383.987 57.83L384.757 57.192ZM393.461 64.744L392.937 65.5957L392.947 65.6015L393.461 64.744ZM404.469 68.968L404.277 69.9494L405.469 70.1826V68.968H404.469ZM404.469 1V0H403.469V1H404.469ZM424.949 1H425.949V0H424.949V1ZM424.949 69.608H423.949V70.608H424.949V69.608ZM452.469 69.608V70.608H453.469V69.608H452.469ZM452.469 1V2H473.077V1V0H452.469V1ZM473.077 1H472.077V90.216H473.077H474.077V1H473.077ZM473.077 90.216V89.216H424.949V90.216V91.216H473.077V90.216ZM424.949 90.216V89.216H411.253V90.216V91.216H424.949V90.216ZM411.253 90.216V89.216C403.785 89.216 396.793 87.8322 390.267 85.071L389.877 85.992L389.487 86.913C396.273 89.7838 403.531 91.216 411.253 91.216V90.216ZM389.877 85.992L390.277 85.0753C383.731 82.2221 378.034 78.3664 373.176 73.5089L372.469 74.216L371.762 74.9231C376.803 79.9642 382.711 83.9593 389.477 86.9087L389.877 85.992ZM372.469 74.216L373.182 73.515C368.321 68.57 364.464 62.8276 361.61 56.2804L360.693 56.68L359.776 57.0796C362.725 63.8444 366.718 69.7927 371.756 74.917L372.469 74.216ZM360.693 56.68L361.614 56.2904C358.853 49.7639 357.469 42.7717 357.469 35.304H356.469H355.469C355.469 43.0256 356.901 50.2841 359.772 57.0696L360.693 56.68ZM356.469 35.304H357.469V1H356.469H355.469V35.304H356.469ZM356.469 1V2H376.949V1V0H356.469V1ZM376.949 1H375.949V35.304H376.949H377.949V1H376.949ZM376.949 35.304H375.949C375.949 39.5964 376.65 43.6805 378.057 47.5497L378.997 47.208L379.937 46.8663C378.613 43.2262 377.949 39.3743 377.949 35.304H376.949ZM378.997 47.208L378.067 47.5757C379.553 51.3347 381.523 54.7498 383.976 57.8167L384.757 57.192L385.538 56.5673C383.213 53.6609 381.342 50.42 379.927 46.8403L378.997 47.208ZM384.757 57.192L383.987 57.83C386.532 60.9015 389.517 63.4908 392.937 65.5957L393.461 64.744L393.985 63.8923C390.75 61.9012 387.931 59.4558 385.527 56.554L384.757 57.192ZM393.461 64.744L392.947 65.6015C396.46 67.7095 400.238 69.1592 404.277 69.9494L404.469 68.968L404.661 67.9866C400.849 67.2408 397.289 65.8745 393.976 63.8865L393.461 64.744ZM404.469 68.968H405.469V1H404.469H403.469V68.968H404.469ZM404.469 1V2H424.949V1V0H404.469V1ZM424.949 1H423.949V69.608H424.949H425.949V1H424.949ZM424.949 69.608V70.608H452.469V69.608V68.608H424.949V69.608ZM452.469 69.608H453.469V1H452.469H451.469V69.608H452.469ZM546.943 90.216H545.943V91.216H546.943V90.216ZM546.943 76.52H547.943V75.52H546.943V76.52ZM505.727 76.52V75.52H504.727V76.52H505.727ZM505.727 90.216V91.216H506.727V90.216H505.727ZM485.247 90.216H484.247V91.216H485.247V90.216ZM488.447 26.216L487.532 25.8127L487.529 25.8202L488.447 26.216ZM497.279 13.16L496.572 12.4529V12.4529L497.279 13.16ZM510.335 4.328L510.731 5.24636L510.738 5.24309L510.335 4.328ZM542.335 4.328L541.926 5.24051L541.935 5.24473L541.945 5.24876L542.335 4.328ZM555.391 13.16L554.676 13.8589L554.684 13.8671L554.692 13.8752L555.391 13.16ZM564.223 26.216L563.302 26.6062L563.306 26.6157L563.311 26.6251L564.223 26.216ZM567.551 90.216V91.216H568.551V90.216H567.551ZM546.943 55.912V56.912H547.943V55.912H546.943ZM545.279 34.28L544.351 34.6514L544.358 34.6704L544.367 34.6891L545.279 34.28ZM540.927 27.624L540.22 28.3311V28.3311L540.927 27.624ZM534.271 23.272L533.862 24.1845L533.881 24.1929L533.9 24.2005L534.271 23.272ZM518.271 23.272L518.653 24.196L518.661 24.1929L518.669 24.1896L518.271 23.272ZM507.263 34.28L506.345 33.8824L506.342 33.89L506.339 33.8977L507.263 34.28ZM505.727 55.912H504.727V56.912H505.727V55.912ZM546.943 90.216H547.943V76.52H546.943H545.943V90.216H546.943ZM546.943 76.52V75.52H505.727V76.52V77.52H546.943V76.52ZM505.727 76.52H504.727V90.216H505.727H506.727V76.52H505.727ZM505.727 90.216V89.216H485.247V90.216V91.216H505.727V90.216ZM485.247 90.216H486.247V42.216H485.247H484.247V90.216H485.247ZM485.247 42.216H486.247C486.247 36.6264 487.289 31.4287 489.365 26.6118L488.447 26.216L487.529 25.8202C485.338 30.902 484.247 36.371 484.247 42.216H485.247ZM488.447 26.216L489.362 26.6193C491.534 21.691 494.41 17.4437 497.986 13.8671L497.279 13.16L496.572 12.4529C492.81 16.2149 489.797 20.6717 487.532 25.8127L488.447 26.216ZM497.279 13.16L497.986 13.8671C501.65 10.2033 505.896 7.33035 510.731 5.24633L510.335 4.328L509.939 3.40968C504.875 5.59232 500.417 8.6074 496.572 12.4529L497.279 13.16ZM510.335 4.328L510.738 5.24309C515.643 3.08176 520.839 2 526.335 2V1V0C520.568 0 515.097 1.13691 509.932 3.41292L510.335 4.328ZM526.335 1V2C531.919 2 537.112 3.08262 541.926 5.24051L542.335 4.328L542.744 3.4155C537.659 1.13605 532.186 0 526.335 0V1ZM542.335 4.328L541.945 5.24876C546.863 7.3326 551.103 10.2029 554.676 13.8589L555.391 13.16L556.106 12.4611C552.34 8.60773 547.877 5.59007 542.725 3.40725L542.335 4.328ZM555.391 13.16L554.692 13.8752C558.348 17.4481 561.218 21.6883 563.302 26.6062L564.223 26.216L565.144 25.8259C562.961 20.6744 559.943 16.2106 556.09 12.4448L555.391 13.16ZM564.223 26.216L563.311 26.6251C565.468 31.4388 566.551 36.6319 566.551 42.216H567.551H568.551C568.551 36.3655 567.415 30.8919 565.136 25.8069L564.223 26.216ZM567.551 42.216H566.551V90.216H567.551H568.551V42.216H567.551ZM567.551 90.216V89.216H546.943V90.216V91.216H567.551V90.216ZM546.943 55.912H547.943V42.216H546.943H545.943V55.912H546.943ZM546.943 42.216H547.943C547.943 39.2645 547.361 36.4792 546.192 33.8709L545.279 34.28L544.367 34.6891C545.416 37.0301 545.943 39.5355 545.943 42.216H546.943ZM545.279 34.28L546.208 33.9086C545.135 31.2278 543.611 28.8937 541.634 26.9169L540.927 27.624L540.22 28.3311C541.998 30.109 543.375 32.2122 544.351 34.6514L545.279 34.28ZM540.927 27.624L541.634 26.9169C539.657 24.9401 537.323 23.4158 534.642 22.3435L534.271 23.272L533.9 24.2005C536.339 25.1762 538.442 26.5532 540.22 28.3311L540.927 27.624ZM534.271 23.272L534.68 22.3595C532.072 21.1903 529.286 20.608 526.335 20.608V21.608V22.608C529.016 22.608 531.521 23.1351 533.862 24.1845L534.271 23.272ZM526.335 21.608V20.608C523.384 20.608 520.56 21.1902 517.873 22.3544L518.271 23.272L518.669 24.1896C521.102 23.1351 523.654 22.608 526.335 22.608V21.608ZM518.271 23.272L517.889 22.348C515.294 23.4218 513.007 24.9458 511.036 26.9169L511.743 27.624L512.45 28.3311C514.234 26.5475 516.299 25.1702 518.653 24.196L518.271 23.272ZM511.743 27.624L511.036 26.9169C509.065 28.8877 507.502 31.2129 506.345 33.8824L507.263 34.28L508.181 34.6776C509.242 32.2271 510.666 30.115 512.45 28.3311L511.743 27.624ZM507.263 34.28L506.339 33.8977C505.262 36.4997 504.727 39.2757 504.727 42.216H505.727H506.727C506.727 39.5243 507.216 37.0096 508.187 34.6624L507.263 34.28ZM505.727 42.216H504.727V55.912H505.727H506.727V42.216H505.727ZM505.727 55.912V56.912H546.943V55.912V54.912H505.727V55.912ZM629.963 58.344L629.751 57.3668L627.063 57.951L629.498 59.2294L629.963 58.344ZM640.715 54.632L641.162 55.5264L641.172 55.5218L641.181 55.5169L640.715 54.632ZM650.059 48.104L650.773 47.4042L650.108 46.7249L649.396 47.3554L650.059 48.104ZM658.891 61.032L659.818 60.6575V60.6575L658.891 61.032ZM661.579 90.216V91.216H662.579V90.216H661.579ZM640.971 90.216H639.971V91.216H640.971V90.216ZM638.027 65.896L638.883 65.3782V65.3782L638.027 65.896ZM640.971 1.128V0.127998H639.971V1.128H640.971ZM661.579 1.128H662.579V0.127998H661.579V1.128ZM658.251 30.824L657.336 30.4207L657.333 30.4282L658.251 30.824ZM649.419 43.88L650.126 44.5871V44.5871L649.419 43.88ZM636.363 52.712L636.759 53.6304L636.766 53.6271L636.363 52.712ZM612.299 57.576L612.681 58.5L612.689 58.4968L612.697 58.4936L612.299 57.576ZM601.291 68.584L600.373 68.1864L600.37 68.194L600.367 68.2017L601.291 68.584ZM599.755 90.216V91.216H600.755V90.216H599.755ZM579.275 90.216H578.275V91.216H579.275V90.216ZM582.475 60.648L581.56 60.2447L581.557 60.2522L582.475 60.648ZM591.307 47.592L592.014 48.2991V48.2991L591.307 47.592ZM604.363 38.76L604.759 39.6784L604.766 39.6751L604.363 38.76ZM628.299 33.896L628.681 34.82L628.689 34.8168L628.697 34.8136L628.299 33.896ZM639.307 22.888L638.39 22.4904L638.386 22.498L638.383 22.5056L639.307 22.888ZM602.699 25.448L603.555 24.9302V24.9302L602.699 25.448ZM610.763 33L610.996 33.9726L613.587 33.353L611.228 32.1146L610.763 33ZM590.667 43.24L589.953 43.9398L590.618 44.6191L591.33 43.9886L590.667 43.24ZM581.835 30.312L580.902 30.671L580.905 30.6787L580.908 30.6865L581.835 30.312ZM579.275 1.128V0.127998H578.275V1.128H579.275ZM599.755 1.128H600.755V0.127998H599.755V1.128ZM629.963 58.344L630.175 59.3212C634.174 58.452 637.838 57.1888 641.162 55.5264L640.715 54.632L640.268 53.7376C637.107 55.3179 633.603 56.5293 629.751 57.3668L629.963 58.344ZM640.715 54.632L641.181 55.5169C644.5 53.7697 647.681 51.5464 650.722 48.8526L650.059 48.104L649.396 47.3554C646.464 49.9522 643.415 52.0809 640.249 53.7471L640.715 54.632ZM650.059 48.104L649.345 48.8038C653.369 52.9119 656.23 57.1143 657.964 61.4065L658.891 61.032L659.818 60.6575C657.968 56.0751 654.941 51.6587 650.773 47.4042L650.059 48.104ZM658.891 61.032L657.964 61.4065C659.698 65.7008 660.579 70.7317 660.579 76.52H661.579H662.579C662.579 70.5323 661.668 65.2378 659.818 60.6575L658.891 61.032ZM661.579 76.52H660.579V90.216H661.579H662.579V76.52H661.579ZM661.579 90.216V89.216H640.971V90.216V91.216H661.579V90.216ZM640.971 90.216H641.971V76.52H640.971H639.971V90.216H640.971ZM640.971 76.52H641.971C641.971 72.5 640.941 68.7792 638.883 65.3782L638.027 65.896L637.172 66.4138C639.038 69.4982 639.971 72.86 639.971 76.52H640.971ZM638.027 65.896L638.883 65.3782C636.824 61.9769 634 59.3337 630.428 57.4586L629.963 58.344L629.498 59.2294C632.753 60.9383 635.305 63.3297 637.172 66.4138L638.027 65.896ZM640.971 1.128V2.128H661.579V1.128V0.127998H640.971V1.128ZM661.579 1.128H660.579V14.824H661.579H662.579V1.128H661.579ZM661.579 14.824H660.579C660.579 20.3205 659.497 25.5162 657.336 30.4207L658.251 30.824L659.166 31.2273C661.442 26.0625 662.579 20.5915 662.579 14.824H661.579ZM658.251 30.824L657.333 30.4282C655.249 35.2631 652.376 39.5091 648.712 43.1729L649.419 43.88L650.126 44.5871C653.972 40.7416 656.987 36.2836 659.169 31.2198L658.251 30.824ZM649.419 43.88L648.712 43.1729C645.135 46.7495 640.888 49.6251 635.96 51.7969L636.363 52.712L636.766 53.6271C641.907 51.3615 646.364 48.3492 650.126 44.5871L649.419 43.88ZM636.363 52.712L635.967 51.7937C631.15 53.8699 625.953 54.912 620.363 54.912V55.912V56.912C626.208 56.912 631.677 55.8208 636.759 53.6303L636.363 52.712ZM620.363 55.912V54.912C617.412 54.912 614.588 55.4942 611.901 56.6584L612.299 57.576L612.697 58.4936C615.13 57.4391 617.682 56.912 620.363 56.912V55.912ZM612.299 57.576L611.917 56.652C609.322 57.7258 607.035 59.2498 605.064 61.2209L605.771 61.928L606.478 62.6351C608.262 60.8515 610.327 59.4742 612.681 58.5L612.299 57.576ZM605.771 61.928L605.064 61.2209C603.093 63.1917 601.53 65.5169 600.373 68.1864L601.291 68.584L602.209 68.9816C603.271 66.5311 604.694 64.419 606.478 62.6351L605.771 61.928ZM601.291 68.584L600.367 68.2017C599.29 70.8037 598.755 73.5797 598.755 76.52H599.755H600.755C600.755 73.8283 601.244 71.3136 602.215 68.9664L601.291 68.584ZM599.755 76.52H598.755V90.216H599.755H600.755V76.52H599.755ZM599.755 90.216V89.216H579.275V90.216V91.216H599.755V90.216ZM579.275 90.216H580.275V76.52H579.275H578.275V90.216H579.275ZM579.275 76.52H580.275C580.275 71.0179 581.316 65.8625 583.393 61.0438L582.475 60.648L581.557 60.2522C579.367 65.3321 578.275 70.7581 578.275 76.52H579.275ZM582.475 60.648L583.39 61.0513C585.562 56.123 588.438 51.8757 592.014 48.2991L591.307 47.592L590.6 46.8849C586.838 50.6469 583.826 55.1037 581.56 60.2447L582.475 60.648ZM591.307 47.592L592.014 48.2991C595.678 44.6353 599.924 41.7623 604.759 39.6783L604.363 38.76L603.967 37.8417C598.904 40.0243 594.445 43.0394 590.6 46.8849L591.307 47.592ZM604.363 38.76L604.766 39.6751C609.671 37.5138 614.867 36.432 620.363 36.432V35.432V34.432C614.596 34.432 609.125 35.5689 603.96 37.8449L604.363 38.76ZM620.363 35.432V36.432C623.303 36.432 626.079 35.8967 628.681 34.82L628.299 33.896L627.917 32.972C625.569 33.9433 623.055 34.432 620.363 34.432V35.432ZM628.299 33.896L628.697 34.8136C631.366 33.6568 633.691 32.0939 635.662 30.1231L634.955 29.416L634.248 28.7089C632.464 30.4927 630.352 31.9166 627.901 32.9784L628.299 33.896ZM634.955 29.416L635.662 30.1231C637.633 28.152 639.157 25.8654 640.231 23.2704L639.307 22.888L638.383 22.5056C637.409 24.86 636.031 26.9253 634.248 28.7089L634.955 29.416ZM639.307 22.888L640.225 23.2856C641.389 20.5989 641.971 17.7755 641.971 14.824H640.971H639.971C639.971 17.5045 639.444 20.0571 638.39 22.4904L639.307 22.888ZM640.971 14.824H641.971V1.128H640.971H639.971V14.824H640.971ZM599.755 14.824H598.755C598.755 18.844 599.785 22.5648 601.844 25.9658L602.699 25.448L603.555 24.9302C601.688 21.8458 600.755 18.484 600.755 14.824H599.755ZM602.699 25.448L601.844 25.9658C603.902 29.3671 606.727 32.0103 610.298 33.8854L610.763 33L611.228 32.1146C607.973 30.4057 605.421 28.0143 603.555 24.9302L602.699 25.448ZM610.763 33L610.53 32.0274C606.539 32.9819 602.882 34.2865 599.564 35.9456L600.011 36.84L600.458 37.7344C603.625 36.1509 607.136 34.8955 610.996 33.9726L610.763 33ZM600.011 36.84L599.564 35.9456C596.236 37.6096 593.049 39.794 590.004 42.4914L590.667 43.24L591.33 43.9886C594.258 41.3953 597.301 39.3131 600.458 37.7344L600.011 36.84ZM590.667 43.24L591.381 42.5402C587.357 38.4321 584.496 34.2297 582.762 29.9375L581.835 30.312L580.908 30.6865C582.758 35.2689 585.785 39.6853 589.953 43.9398L590.667 43.24ZM581.835 30.312L582.768 29.953C581.115 25.6539 580.275 20.6175 580.275 14.824H579.275H578.275C578.275 20.8065 579.142 26.0954 580.902 30.671L581.835 30.312ZM579.275 14.824H580.275V1.128H579.275H578.275V14.824H579.275ZM579.275 1.128V2.128H599.755V1.128V0.127998H579.275V1.128ZM599.755 1.128H598.755V14.824H599.755H600.755V1.128H599.755Z" fill="white" mask="url(#path-1-outside-1_5_9)"/>
</svg>
